<svg width="147" height="51" viewBox="0 0 147 51" fill="none" xmlns="http://www.w3.org/2000/svg">
<path d="M19.0032 32.0749L13 40.9729H35.0816L50.5808 18H34.2832L24.7872 32.0749H19.0032Z" fill="#312ECB"/>
<path d="M18.4992 7H39.5808L24.0816 29.9729H3L18.4992 7Z" fill="#007AFF"/>
<path d="M67.25 19.668C66.326 19.668 65.5187 19.458 64.828 19.038C64.1373 18.618 63.6007 18.03 63.218 17.274C62.8353 16.518 62.644 15.636 62.644 14.628C62.644 13.6293 62.84 12.7473 63.232 11.982C63.624 11.2167 64.1793 10.6193 64.898 10.19C65.626 9.75133 66.4847 9.532 67.474 9.532C68.594 9.532 69.5273 9.80267 70.274 10.344C71.0207 10.8853 71.506 11.632 71.73 12.584H70.05C69.9007 12.0613 69.6067 11.6507 69.168 11.352C68.7293 11.0533 68.1647 10.904 67.474 10.904C66.4473 10.904 65.64 11.2353 65.052 11.898C64.464 12.5607 64.17 13.4753 64.17 14.642C64.17 15.8087 64.4593 16.7187 65.038 17.372C65.6167 18.0253 66.3867 18.352 67.348 18.352C68.3187 18.352 69.0467 18.0767 69.532 17.526C70.0267 16.9753 70.316 16.2427 70.4 15.328H67.74V14.18H71.898V19.5H70.54L70.414 18.058C70.0873 18.5713 69.6767 18.968 69.182 19.248C68.6873 19.528 68.0433 19.668 67.25 19.668ZM76.7371 19.668C76.0557 19.668 75.4491 19.5187 74.9171 19.22C74.3944 18.912 73.9837 18.4873 73.6851 17.946C73.3864 17.4047 73.2371 16.7747 73.2371 16.056C73.2371 15.328 73.3817 14.6887 73.6711 14.138C73.9697 13.5873 74.3804 13.158 74.9031 12.85C75.4351 12.542 76.0511 12.388 76.7511 12.388C77.4324 12.388 78.0251 12.542 78.5291 12.85C79.0331 13.1487 79.4251 13.55 79.7051 14.054C79.9851 14.558 80.1251 15.1133 80.1251 15.72C80.1251 15.8133 80.1204 15.916 80.1111 16.028C80.1111 16.1307 80.1064 16.2473 80.0971 16.378H74.6931C74.7397 17.05 74.9591 17.5633 75.3511 17.918C75.7524 18.2633 76.2144 18.436 76.7371 18.436C77.1571 18.436 77.5071 18.3427 77.7871 18.156C78.0764 17.96 78.2911 17.6987 78.4311 17.372H79.9151C79.7284 18.0253 79.3551 18.5713 78.7951 19.01C78.2444 19.4487 77.5584 19.668 76.7371 19.668ZM76.7371 13.606C76.2424 13.606 75.8037 13.7553 75.4211 14.054C75.0384 14.3433 74.8051 14.782 74.7211 15.37H78.6411C78.6131 14.8287 78.4217 14.3993 78.0671 14.082C77.7124 13.7647 77.2691 13.606 76.7371 13.606ZM85.4169 19.668C84.8755 19.668 84.3949 19.5607 83.9749 19.346C83.5642 19.1313 83.2375 18.828 82.9949 18.436L82.8409 19.5H81.5109V9.42H82.9949V13.634C83.2189 13.3073 83.5269 13.018 83.9189 12.766C84.3109 12.514 84.8149 12.388 85.4309 12.388C86.1029 12.388 86.6955 12.5467 87.2089 12.864C87.7222 13.1813 88.1235 13.6153 88.4129 14.166C88.7115 14.7167 88.8609 15.342 88.8609 16.042C88.8609 16.742 88.7115 17.3673 88.4129 17.918C88.1235 18.4593 87.7222 18.8887 87.2089 19.206C86.6955 19.514 86.0982 19.668 85.4169 19.668ZM85.1649 18.38C85.7995 18.38 86.3222 18.1653 86.7329 17.736C87.1435 17.2973 87.3489 16.728 87.3489 16.028C87.3489 15.5707 87.2555 15.1647 87.0689 14.81C86.8822 14.4553 86.6255 14.18 86.2989 13.984C85.9722 13.7787 85.5942 13.676 85.1649 13.676C84.5302 13.676 84.0075 13.8953 83.5969 14.334C83.1955 14.7727 82.9949 15.3373 82.9949 16.028C82.9949 16.728 83.1955 17.2973 83.5969 17.736C84.0075 18.1653 84.5302 18.38 85.1649 18.38ZM90.3119 19.5V12.556H91.6419L91.7679 13.872C92.0106 13.4147 92.3466 13.0553 92.7759 12.794C93.2146 12.5233 93.7419 12.388 94.3579 12.388V13.942H93.9519C93.5413 13.942 93.1726 14.012 92.8459 14.152C92.5286 14.2827 92.2719 14.5113 92.0759 14.838C91.8893 15.1553 91.7959 15.5987 91.7959 16.168V19.5H90.3119ZM97.8283 19.668C97.2403 19.668 96.755 19.57 96.3723 19.374C95.9896 19.178 95.705 18.9213 95.5183 18.604C95.3316 18.2773 95.2383 17.9227 95.2383 17.54C95.2383 16.868 95.4996 16.336 96.0223 15.944C96.545 15.552 97.2916 15.356 98.2623 15.356H100.082V15.23C100.082 14.6887 99.933 14.2827 99.6343 14.012C99.345 13.7413 98.967 13.606 98.5003 13.606C98.0896 13.606 97.7303 13.7087 97.4223 13.914C97.1236 14.11 96.9416 14.404 96.8763 14.796H95.3923C95.439 14.292 95.607 13.8627 95.8963 13.508C96.195 13.144 96.5683 12.8687 97.0163 12.682C97.4736 12.486 97.973 12.388 98.5143 12.388C99.485 12.388 100.236 12.6447 100.768 13.158C101.3 13.662 101.566 14.3527 101.566 15.23V19.5H100.278L100.152 18.31C99.9563 18.6927 99.6716 19.0147 99.2983 19.276C98.925 19.5373 98.435 19.668 97.8283 19.668ZM98.1223 18.464C98.5236 18.464 98.8596 18.3707 99.1303 18.184C99.4103 17.988 99.625 17.7313 99.7743 17.414C99.933 17.0967 100.031 16.7467 100.068 16.364H98.4163C97.8283 16.364 97.4083 16.4667 97.1563 16.672C96.9136 16.8773 96.7923 17.134 96.7923 17.442C96.7923 17.7593 96.909 18.0113 97.1423 18.198C97.385 18.3753 97.7116 18.464 98.1223 18.464ZM106.572 19.5V9.7H109.75C110.898 9.7 111.841 9.90067 112.578 10.302C113.325 10.7033 113.875 11.2727 114.23 12.01C114.594 12.738 114.776 13.606 114.776 14.614C114.776 15.6127 114.594 16.4807 114.23 17.218C113.875 17.946 113.325 18.5107 112.578 18.912C111.841 19.304 110.898 19.5 109.75 19.5H106.572ZM108.056 18.24H109.694C110.581 18.24 111.281 18.0953 111.794 17.806C112.317 17.5167 112.69 17.1013 112.914 16.56C113.147 16.0187 113.264 15.37 113.264 14.614C113.264 13.858 113.147 13.2047 112.914 12.654C112.69 12.1033 112.317 11.6833 111.794 11.394C111.281 11.0953 110.581 10.946 109.694 10.946H108.056V18.24ZM117.046 11.24C116.766 11.24 116.532 11.156 116.346 10.988C116.168 10.8107 116.08 10.5913 116.08 10.33C116.08 10.0687 116.168 9.854 116.346 9.686C116.532 9.50867 116.766 9.42 117.046 9.42C117.326 9.42 117.554 9.50867 117.732 9.686C117.918 9.854 118.012 10.0687 118.012 10.33C118.012 10.5913 117.918 10.8107 117.732 10.988C117.554 11.156 117.326 11.24 117.046 11.24ZM116.304 19.5V12.556H117.788V19.5H116.304ZM122.435 17.372C122.071 17.372 121.735 17.33 121.427 17.246L120.825 17.834C120.927 17.8993 121.053 17.9553 121.203 18.002C121.352 18.0487 121.562 18.0907 121.833 18.128C122.103 18.1653 122.472 18.2027 122.939 18.24C123.863 18.324 124.53 18.548 124.941 18.912C125.351 19.2667 125.557 19.7427 125.557 20.34C125.557 20.7507 125.445 21.138 125.221 21.502C125.006 21.8753 124.665 22.174 124.199 22.398C123.741 22.6313 123.153 22.748 122.435 22.748C121.464 22.748 120.675 22.5613 120.069 22.188C119.471 21.824 119.173 21.2687 119.173 20.522C119.173 20.2327 119.247 19.9433 119.397 19.654C119.555 19.374 119.803 19.108 120.139 18.856C119.943 18.772 119.77 18.6833 119.621 18.59C119.481 18.4873 119.355 18.3847 119.243 18.282V17.946L120.447 16.714C119.905 16.2473 119.635 15.636 119.635 14.88C119.635 14.4227 119.742 14.0073 119.957 13.634C120.181 13.2513 120.503 12.948 120.923 12.724C121.343 12.5 121.847 12.388 122.435 12.388C122.827 12.388 123.191 12.444 123.527 12.556H126.117V13.536L124.885 13.606C125.109 13.9887 125.221 14.4133 125.221 14.88C125.221 15.3467 125.109 15.7667 124.885 16.14C124.67 16.5133 124.353 16.812 123.933 17.036C123.522 17.26 123.023 17.372 122.435 17.372ZM122.435 16.21C122.864 16.21 123.209 16.098 123.471 15.874C123.741 15.6407 123.877 15.314 123.877 14.894C123.877 14.4647 123.741 14.138 123.471 13.914C123.209 13.69 122.864 13.578 122.435 13.578C121.996 13.578 121.641 13.69 121.371 13.914C121.109 14.138 120.979 14.4647 120.979 14.894C120.979 15.314 121.109 15.6407 121.371 15.874C121.641 16.098 121.996 16.21 122.435 16.21ZM120.573 20.382C120.573 20.7833 120.75 21.082 121.105 21.278C121.459 21.4833 121.903 21.586 122.435 21.586C122.948 21.586 123.363 21.474 123.681 21.25C123.998 21.0353 124.157 20.746 124.157 20.382C124.157 20.1113 124.049 19.878 123.835 19.682C123.62 19.4953 123.214 19.3787 122.617 19.332C122.169 19.304 121.772 19.262 121.427 19.206C121.1 19.3833 120.876 19.5747 120.755 19.78C120.633 19.9853 120.573 20.186 120.573 20.382ZM128.126 11.24C127.846 11.24 127.613 11.156 127.426 10.988C127.249 10.8107 127.16 10.5913 127.16 10.33C127.16 10.0687 127.249 9.854 127.426 9.686C127.613 9.50867 127.846 9.42 128.126 9.42C128.406 9.42 128.635 9.50867 128.812 9.686C128.999 9.854 129.092 10.0687 129.092 10.33C129.092 10.5913 128.999 10.8107 128.812 10.988C128.635 11.156 128.406 11.24 128.126 11.24ZM127.384 19.5V12.556H128.868V19.5H127.384ZM133.585 19.5C132.904 19.5 132.363 19.3367 131.961 19.01C131.56 18.674 131.359 18.0813 131.359 17.232V13.802H130.169V12.556H131.359L131.541 10.792H132.843V12.556H134.803V13.802H132.843V17.232C132.843 17.6147 132.923 17.8807 133.081 18.03C133.249 18.17 133.534 18.24 133.935 18.24H134.733V19.5H133.585ZM138.532 19.668C137.944 19.668 137.458 19.57 137.076 19.374C136.693 19.178 136.408 18.9213 136.222 18.604C136.035 18.2773 135.942 17.9227 135.942 17.54C135.942 16.868 136.203 16.336 136.726 15.944C137.248 15.552 137.995 15.356 138.966 15.356H140.786V15.23C140.786 14.6887 140.636 14.2827 140.338 14.012C140.048 13.7413 139.67 13.606 139.204 13.606C138.793 13.606 138.434 13.7087 138.126 13.914C137.827 14.11 137.645 14.404 137.58 14.796H136.096C136.142 14.292 136.31 13.8627 136.6 13.508C136.898 13.144 137.272 12.8687 137.72 12.682C138.177 12.486 138.676 12.388 139.218 12.388C140.188 12.388 140.94 12.6447 141.472 13.158C142.004 13.662 142.27 14.3527 142.27 15.23V19.5H140.982L140.856 18.31C140.66 18.6927 140.375 19.0147 140.002 19.276C139.628 19.5373 139.138 19.668 138.532 19.668ZM138.826 18.464C139.227 18.464 139.563 18.3707 139.834 18.184C140.114 17.988 140.328 17.7313 140.478 17.414C140.636 17.0967 140.734 16.7467 140.772 16.364H139.12C138.532 16.364 138.112 16.4667 137.86 16.672C137.617 16.8773 137.496 17.134 137.496 17.442C137.496 17.7593 137.612 18.0113 137.846 18.198C138.088 18.3753 138.415 18.464 138.826 18.464ZM143.846 19.5V9.42H145.33V19.5H143.846ZM66.228 40.668C65.5093 40.668 64.8793 40.542 64.338 40.29C63.7967 40.038 63.372 39.6787 63.064 39.212C62.7653 38.7453 62.6113 38.19 62.602 37.546H64.17C64.1793 38.0687 64.3613 38.512 64.716 38.876C65.0707 39.24 65.57 39.422 66.214 39.422C66.7833 39.422 67.2267 39.2867 67.544 39.016C67.8707 38.736 68.034 38.3813 68.034 37.952C68.034 37.6067 67.9547 37.3267 67.796 37.112C67.6467 36.8973 67.4367 36.72 67.166 36.58C66.9047 36.44 66.6013 36.314 66.256 36.202C65.9107 36.09 65.5467 35.9687 65.164 35.838C64.408 35.586 63.8387 35.2593 63.456 34.858C63.0827 34.4567 62.896 33.9293 62.896 33.276C62.8867 32.7253 63.0127 32.2447 63.274 31.834C63.5447 31.4233 63.918 31.106 64.394 30.882C64.8793 30.6487 65.444 30.532 66.088 30.532C66.7227 30.532 67.278 30.6487 67.754 30.882C68.2393 31.1153 68.6173 31.442 68.888 31.862C69.1587 32.2727 69.2987 32.7533 69.308 33.304H67.74C67.74 33.052 67.6747 32.814 67.544 32.59C67.4133 32.3567 67.222 32.1653 66.97 32.016C66.718 31.8667 66.41 31.792 66.046 31.792C65.5793 31.7827 65.192 31.8993 64.884 32.142C64.5853 32.3847 64.436 32.7207 64.436 33.15C64.436 33.5327 64.548 33.8267 64.772 34.032C64.996 34.2373 65.304 34.41 65.696 34.55C66.088 34.6807 66.536 34.8347 67.04 35.012C67.5253 35.1707 67.9593 35.362 68.342 35.586C68.7247 35.81 69.028 36.104 69.252 36.468C69.4853 36.832 69.602 37.294 69.602 37.854C69.602 38.3487 69.476 38.8107 69.224 39.24C68.972 39.66 68.594 40.0053 68.09 40.276C67.586 40.5373 66.9653 40.668 66.228 40.668ZM74.3045 40.668C73.6231 40.668 73.0118 40.514 72.4705 40.206C71.9385 39.898 71.5185 39.4733 71.2105 38.932C70.9118 38.3813 70.7625 37.7467 70.7625 37.028C70.7625 36.3093 70.9118 35.6793 71.2105 35.138C71.5185 34.5873 71.9385 34.158 72.4705 33.85C73.0118 33.542 73.6231 33.388 74.3045 33.388C75.1631 33.388 75.8818 33.612 76.4605 34.06C77.0485 34.508 77.4265 35.1147 77.5945 35.88H76.0405C75.9471 35.4973 75.7418 35.1987 75.4245 34.984C75.1071 34.7693 74.7338 34.662 74.3045 34.662C73.9405 34.662 73.6045 34.7553 73.2965 34.942C72.9885 35.1193 72.7411 35.3853 72.5545 35.74C72.3678 36.0853 72.2745 36.5147 72.2745 37.028C72.2745 37.5413 72.3678 37.9753 72.5545 38.33C72.7411 38.6753 72.9885 38.9413 73.2965 39.128C73.6045 39.3147 73.9405 39.408 74.3045 39.408C74.7338 39.408 75.1071 39.3007 75.4245 39.086C75.7418 38.8713 75.9471 38.568 76.0405 38.176H77.5945C77.4358 38.9227 77.0625 39.5247 76.4745 39.982C75.8865 40.4393 75.1631 40.668 74.3045 40.668ZM79.0499 40.5V30.42H80.5339V34.676C80.7673 34.2747 81.0893 33.962 81.4999 33.738C81.9199 33.5047 82.3819 33.388 82.8859 33.388C83.7166 33.388 84.3699 33.6493 84.8459 34.172C85.3219 34.6947 85.5599 35.474 85.5599 36.51V40.5H84.0899V36.664C84.0899 35.32 83.5533 34.648 82.4799 34.648C81.9199 34.648 81.4533 34.844 81.0799 35.236C80.7159 35.628 80.5339 36.188 80.5339 36.916V40.5H79.0499ZM90.4017 40.668C89.7391 40.668 89.1417 40.5187 88.6097 40.22C88.0871 39.912 87.6717 39.4873 87.3637 38.946C87.0557 38.3953 86.9017 37.756 86.9017 37.028C86.9017 36.3 87.0557 35.6653 87.3637 35.124C87.6811 34.5733 88.1057 34.1487 88.6377 33.85C89.1697 33.542 89.7624 33.388 90.4157 33.388C91.0784 33.388 91.6711 33.542 92.1937 33.85C92.7257 34.1487 93.1457 34.5733 93.4537 35.124C93.7711 35.6653 93.9297 36.3 93.9297 37.028C93.9297 37.756 93.7711 38.3953 93.4537 38.946C93.1457 39.4873 92.7257 39.912 92.1937 40.22C91.6617 40.5187 91.0644 40.668 90.4017 40.668ZM90.4017 39.394C90.7564 39.394 91.0831 39.3053 91.3817 39.128C91.6897 38.9507 91.9371 38.6893 92.1237 38.344C92.3104 37.9893 92.4037 37.5507 92.4037 37.028C92.4037 36.5053 92.3104 36.0713 92.1237 35.726C91.9464 35.3713 91.7037 35.1053 91.3957 34.928C91.0971 34.7507 90.7704 34.662 90.4157 34.662C90.0611 34.662 89.7297 34.7507 89.4217 34.928C89.1231 35.1053 88.8804 35.3713 88.6937 35.726C88.5071 36.0713 88.4137 36.5053 88.4137 37.028C88.4137 37.5507 88.5071 37.9893 88.6937 38.344C88.8804 38.6893 89.1231 38.9507 89.4217 39.128C89.7204 39.3053 90.0471 39.394 90.4017 39.394ZM98.6286 40.668C97.9659 40.668 97.3686 40.5187 96.8366 40.22C96.3139 39.912 95.8986 39.4873 95.5906 38.946C95.2826 38.3953 95.1286 37.756 95.1286 37.028C95.1286 36.3 95.2826 35.6653 95.5906 35.124C95.9079 34.5733 96.3326 34.1487 96.8646 33.85C97.3966 33.542 97.9893 33.388 98.6426 33.388C99.3053 33.388 99.8979 33.542 100.421 33.85C100.953 34.1487 101.373 34.5733 101.681 35.124C101.998 35.6653 102.157 36.3 102.157 37.028C102.157 37.756 101.998 38.3953 101.681 38.946C101.373 39.4873 100.953 39.912 100.421 40.22C99.8886 40.5187 99.2913 40.668 98.6286 40.668ZM98.6286 39.394C98.9833 39.394 99.3099 39.3053 99.6086 39.128C99.9166 38.9507 100.164 38.6893 100.351 38.344C100.537 37.9893 100.631 37.5507 100.631 37.028C100.631 36.5053 100.537 36.0713 100.351 35.726C100.173 35.3713 99.9306 35.1053 99.6226 34.928C99.3239 34.7507 98.9973 34.662 98.6426 34.662C98.2879 34.662 97.9566 34.7507 97.6486 34.928C97.3499 35.1053 97.1073 35.3713 96.9206 35.726C96.7339 36.0713 96.6406 36.5053 96.6406 37.028C96.6406 37.5507 96.7339 37.9893 96.9206 38.344C97.1073 38.6893 97.3499 38.9507 97.6486 39.128C97.9473 39.3053 98.2739 39.394 98.6286 39.394ZM103.607 40.5V30.42H105.091V40.5H103.607Z" fill="#007AFF"/>
</svg>
