<svg width="50" height="50" viewBox="0 0 50 50" fill="none" xmlns="http://www.w3.org/2000/svg">
<rect width="50" height="50" rx="8" fill="#007AFF" fill-opacity="0.16"/>
<path opacity="0.2" fill-rule="evenodd" clip-rule="evenodd" d="M30.25 18.875H19.75C18.5897 18.875 17.4769 19.3359 16.6564 20.1564C15.8359 20.9769 15.375 22.0897 15.375 23.25V32C15.375 33.1603 15.8359 34.2731 16.6564 35.0936C17.4769 35.9141 18.5897 36.375 19.75 36.375H30.25C31.4103 36.375 32.5231 35.9141 33.3436 35.0936C34.1641 34.2731 34.625 33.1603 34.625 32V31.958L38.734 34.6968C38.8658 34.7844 39.0188 34.8347 39.1769 34.8423C39.335 34.8499 39.4922 34.8144 39.6318 34.7397C39.7713 34.665 39.8879 34.5538 39.9693 34.4181C40.0507 34.2823 40.0937 34.127 40.0938 33.9688V21.7188C40.0937 21.5605 40.0507 21.4052 39.9693 21.2694C39.8879 21.1337 39.7713 21.0225 39.6318 20.9478C39.4922 20.8731 39.335 20.8376 39.1769 20.8452C39.0188 20.8528 38.8658 20.9031 38.734 20.9908L34.625 23.7295V23.25C34.625 22.0897 34.1641 20.9769 33.3436 20.1564C32.5231 19.3359 31.4103 18.875 30.25 18.875Z" fill="#007AFF"/>
<path fill-rule="evenodd" clip-rule="evenodd" d="M26.75 15.375H16.25C15.0897 15.375 13.9769 15.8359 13.1564 16.6564C12.3359 17.4769 11.875 18.5897 11.875 19.75V28.5C11.875 29.6603 12.3359 30.7731 13.1564 31.5936C13.9769 32.4141 15.0897 32.875 16.25 32.875H26.75C27.9103 32.875 29.0231 32.4141 29.8436 31.5936C30.6641 30.7731 31.125 29.6603 31.125 28.5V19.75C31.125 18.5897 30.6641 17.4769 29.8436 16.6564C29.0231 15.8359 27.9103 15.375 26.75 15.375ZM13.625 19.75C13.625 19.0538 13.9016 18.3861 14.3938 17.8938C14.8861 17.4016 15.5538 17.125 16.25 17.125H26.75C27.4462 17.125 28.1139 17.4016 28.6062 17.8938C29.0984 18.3861 29.375 19.0538 29.375 19.75V28.5C29.375 29.1962 29.0984 29.8639 28.6062 30.3562C28.1139 30.8484 27.4462 31.125 26.75 31.125H16.25C15.5538 31.125 14.8861 30.8484 14.3938 30.3562C13.9016 29.8639 13.625 29.1962 13.625 28.5V19.75Z" fill="#007AFF"/>
<path fill-rule="evenodd" clip-rule="evenodd" d="M35.024 17.265L29.8125 20.6547C29.6914 20.7332 29.5916 20.8405 29.522 20.9669C29.4524 21.0933 29.4151 21.2349 29.4135 21.3792L29.3663 25.9502C29.3645 26.0976 29.4 26.2431 29.4694 26.3731C29.5389 26.5031 29.64 26.6135 29.7635 26.694L35.0205 30.11C35.1526 30.196 35.3054 30.2448 35.4629 30.2512C35.6204 30.2576 35.7767 30.2213 35.9152 30.1462C36.0538 30.0711 36.1695 29.9599 36.2501 29.8245C36.3308 29.6891 36.3733 29.5344 36.3733 29.3767V18C36.3736 17.8422 36.3313 17.6873 36.2508 17.5516C36.1703 17.4159 36.0546 17.3045 35.916 17.2292C35.7774 17.1539 35.621 17.1174 35.4633 17.1237C35.3057 17.13 35.1527 17.1788 35.0205 17.265M34.625 27.765L31.1233 25.4882L31.16 21.8657L34.625 19.6135V27.765Z" fill="#007AFF"/>
</svg>
