<svg width="20" height="21" viewBox="0 0 20 21" fill="none" xmlns="http://www.w3.org/2000/svg">
<path d="M2.04567 7.11647C2.28008 6.88213 2.59797 6.75049 2.92942 6.75049C3.26088 6.75049 3.57876 6.88213 3.81317 7.11647L10.0007 13.304L16.1882 7.11647C16.4239 6.88877 16.7397 6.76278 17.0674 6.76563C17.3952 6.76848 17.7087 6.89994 17.9404 7.1317C18.1722 7.36346 18.3037 7.67697 18.3065 8.00472C18.3094 8.33247 18.1834 8.64822 17.9557 8.88397L10.8844 15.9552C10.65 16.1896 10.3321 16.3212 10.0007 16.3212C9.66922 16.3212 9.35133 16.1896 9.11692 15.9552L2.04567 8.88397C1.81133 8.64956 1.67969 8.33168 1.67969 8.00022C1.67969 7.66877 1.81133 7.35088 2.04567 7.11647Z" fill="#F8FAFC"/>
</svg>
