<svg width="32" height="33" viewBox="0 0 32 33" fill="none" xmlns="http://www.w3.org/2000/svg">
<g clip-path="url(#clip0_159_963)">
<rect x="-0.000488281" y="0.5" width="32" height="32" rx="4" fill="#007AFF"/>
<path d="M28.7457 20.8817L24.3504 4.50964C23.8725 2.72959 21.6848 2.07379 20.3033 3.29645L17.5331 5.74823C14.4503 8.4766 10.7734 10.4511 6.79359 11.5155C3.46223 12.4064 1.48791 15.834 2.38053 19.1589C3.27317 22.4839 6.70005 24.4669 10.0314 23.576C14.0112 22.5116 18.1847 22.3867 22.2213 23.2112L25.8487 23.952C27.6576 24.3215 29.2236 22.6617 28.7457 20.8817Z" stroke="white" stroke-width="2" stroke-linecap="round" stroke-linejoin="round"/>
<path d="M9.78955 10.6707L14.8329 29.3373" stroke="white" stroke-width="2" stroke-linecap="round" stroke-linejoin="round"/>
</g>
<defs>
<clipPath id="clip0_159_963">
<rect x="-0.000488281" y="0.5" width="32" height="32" rx="4" fill="white"/>
</clipPath>
</defs>
</svg>
