<svg width="65" height="65" viewBox="0 0 65 65" fill="none" xmlns="http://www.w3.org/2000/svg">
<path fill-rule="evenodd" clip-rule="evenodd" d="M65 0H0V65H65V0ZM9.47917 8.125H8.125V44.6875H39.7949V41.9792H10.8333V10.8333H47.3958V14.8958H50.1042V8.125H9.47917ZM52.8125 21.6667C52.8125 22.7441 52.3845 23.7774 51.6226 24.5393C50.8608 25.3012 49.8274 25.7292 48.75 25.7292C47.6726 25.7292 46.6392 25.3012 45.8774 24.5393C45.1155 23.7774 44.6875 22.7441 44.6875 21.6667C44.6875 20.5892 45.1155 19.5559 45.8774 18.794C46.6392 18.0322 47.6726 17.6042 48.75 17.6042C49.8274 17.6042 50.8608 18.0322 51.6226 18.794C52.3845 19.5559 52.8125 20.5892 52.8125 21.6667ZM55.5615 30.4633C54.6515 29.2419 53.2594 28.4524 51.5003 28.4524H43.3753C42.929 28.4559 42.4934 28.589 42.1214 28.8356C41.9115 28.971 41.7368 29.1227 41.6122 29.2392C41.349 29.494 41.1033 29.7664 40.8769 30.0544C40.3652 30.7021 39.8774 31.3684 39.4144 32.0518C38.9594 32.7153 38.5274 33.3761 38.1983 33.8853H32.542C32.0033 33.8853 31.4866 34.0993 31.1057 34.4803C30.7247 34.8612 30.5107 35.3778 30.5107 35.9166C30.5107 36.4553 30.7247 36.9719 31.1057 37.3529C31.4866 37.7338 32.0033 37.9478 32.542 37.9478H39.3128C40.0143 37.9478 40.667 37.5863 41.038 36.9904V36.9877L41.0461 36.9782L41.0732 36.9349L41.1775 36.7683C41.441 36.3507 41.7082 35.9354 41.9792 35.5225V54.8438C41.9799 55.3495 42.1692 55.8368 42.5101 56.2103C42.8511 56.5839 43.3191 56.8168 43.8227 56.8635C44.3263 56.9102 44.8292 56.7674 45.2331 56.463C45.6369 56.1586 45.9127 55.7145 46.0065 55.2175L47.9808 44.6875H48.383L50.1312 55.1782C50.2143 55.6818 50.4839 56.1356 50.8863 56.4494C51.2888 56.7633 51.7946 56.9141 52.3032 56.872C52.8118 56.8298 53.2859 56.5977 53.6312 56.2219C53.9765 55.8461 54.1676 55.3541 54.1667 54.8438V41.516C55.2256 40.6805 55.9108 39.4618 56.3198 38.2823C56.7548 37.0118 56.937 35.6685 56.856 34.3281C56.7748 33.0227 56.4146 31.6062 55.5615 30.4633Z" fill="#007AFF"/>
</svg>
