<svg width="63" height="65" viewBox="0 0 63 65" fill="none" xmlns="http://www.w3.org/2000/svg">
<path fill-rule="evenodd" clip-rule="evenodd" d="M56.5809 41.6743H32.7027C35.412 41.433 37.9243 40.1571 39.7174 38.1117C41.5105 36.0663 42.4467 33.4087 42.3313 30.691C42.216 27.9734 41.058 25.4047 39.098 23.5186C37.138 21.6325 34.5267 20.5741 31.8066 20.5632H24.0066C25.1727 18.9952 26.0068 17.2058 26.4578 15.3044C26.9088 13.4031 26.9673 11.4297 26.6296 9.505C26.2919 7.58029 25.5652 5.74466 24.494 4.11037C23.4227 2.47607 22.0293 1.07744 20.3991 0L56.5809 0C58.2416 0.00246034 59.8335 0.663908 61.0069 1.83909C62.1804 3.01428 62.8395 4.60713 62.8395 6.26786V35.4204C62.8395 38.8746 60.0352 41.6789 56.5809 41.6789V41.6743ZM12.4552 20.5725C13.5984 20.5991 14.7354 20.3969 15.7994 19.9778C16.8634 19.5587 17.8328 18.9311 18.6508 18.132C19.4687 17.3328 20.1187 16.3782 20.5624 15.3243C21.0062 14.2704 21.2348 13.1384 21.2348 11.9948C21.2348 10.8513 21.0062 9.71928 20.5624 8.66535C20.1187 7.61142 19.4687 6.65683 18.6508 5.85769C17.8328 5.05855 16.8634 4.43097 15.7994 4.01186C14.7354 3.59274 13.5984 3.39054 12.4552 3.41714C10.2148 3.46927 8.08371 4.39587 6.51762 5.99882C4.95154 7.60177 4.07475 9.75383 4.07475 11.9948C4.07475 14.2358 4.95154 16.3879 6.51762 17.9908C8.08371 19.5938 10.2148 20.5204 12.4552 20.5725ZM36.5748 31.1396C36.5748 28.5025 34.4391 26.3668 31.8066 26.3668H12.4598C10.8439 26.3662 9.24374 26.684 7.75073 27.3021C6.25771 27.9202 4.90114 28.8264 3.75852 29.9691C2.61591 31.1117 1.70966 32.4683 1.09156 33.9613C0.473466 35.4543 0.155641 37.0545 0.156251 38.6704V44.265C0.156251 46.735 2.16197 48.7361 4.63197 48.7361H5.43054L6.73982 60.8539C6.86227 61.9917 7.40058 63.0442 8.25146 63.8094C9.10234 64.5746 10.2058 64.9986 11.3502 65H13.6809C14.8009 64.9995 15.883 64.5942 16.7277 63.8587C17.5724 63.1232 18.1228 62.1072 18.2773 60.9979L21.7734 35.9079H31.802C34.4345 35.9079 36.5702 33.7721 36.5702 31.1396H36.5748Z" fill="#007AFF"/>
</svg>
