<svg width="61" height="52" viewBox="0 0 61 52" fill="none" xmlns="http://www.w3.org/2000/svg">
<path d="M22.3757 8.5415C25.2488 8.5415 28.0043 9.68287 30.036 11.7145C32.0676 13.7462 33.209 16.5017 33.209 19.3748C33.209 22.248 32.0676 25.0035 30.036 27.0352C28.0043 29.0668 25.2488 30.2082 22.3757 30.2082C19.5025 30.2082 16.747 29.0668 14.7153 27.0352C12.6837 25.0035 11.5423 22.248 11.5423 19.3748C11.5423 16.5017 12.6837 13.7462 14.7153 11.7145C16.747 9.68287 19.5025 8.5415 22.3757 8.5415ZM22.3757 35.6248C29.6069 35.6248 44.0423 39.254 44.0423 46.4582V51.8748H0.708984V46.4582C0.708984 39.254 15.1444 35.6248 22.3757 35.6248ZM43.3923 9.5165C48.8632 15.4748 48.8632 23.7353 43.3923 29.2061L38.8423 24.629C41.1173 21.4332 41.1173 17.2894 38.8423 14.0936L43.3923 9.5165ZM52.3569 0.416504C63.0006 11.3853 62.9194 27.7978 52.3569 38.3332L47.9423 33.9186C55.4444 25.3061 55.4444 13.0103 47.9423 4.83109L52.3569 0.416504Z" fill="#007AFF"/>
</svg>
