<svg width="80" height="62" viewBox="0 0 80 62" fill="none" xmlns="http://www.w3.org/2000/svg">
<path fill-rule="evenodd" clip-rule="evenodd" d="M14.2714 3.14051e-06C15.6059 -0.00128441 16.9109 0.39336 18.0211 1.13399C19.1312 1.87462 19.9967 2.92795 20.508 4.16067C21.0193 5.39338 21.1535 6.75007 20.8934 8.05904C20.6334 9.36801 19.9909 10.5704 19.0472 11.5141C18.1035 12.4577 16.9011 13.1003 15.5922 13.3603C14.2832 13.6203 12.9265 13.4862 11.6938 12.9749C10.4611 12.4636 9.40774 11.5981 8.66711 10.4879C7.92648 9.37777 7.53183 8.07283 7.53312 6.73829C7.53312 4.95118 8.24305 3.23727 9.50672 1.9736C10.7704 0.709927 12.4843 3.14051e-06 14.2714 3.14051e-06ZM9.51229 14.7787L11.9081 21.0612H12.162L13.3274 17.0378L12.6763 16.3542C12.2076 15.6706 12.3704 14.8893 13.2428 14.7461C13.557 14.723 13.8725 14.723 14.1868 14.7461C14.5323 14.7262 14.8789 14.7393 15.2219 14.7852C16.0292 14.9675 16.1138 15.7487 15.7102 16.3737L15.0592 17.0573L16.2766 21.0612H16.524L18.6855 14.7787C18.782 14.8656 18.8843 14.9461 18.9915 15.0195C19.6124 15.0758 20.214 15.2645 20.7558 15.5729C21.5532 15.7321 22.2553 16.2001 22.7089 16.875L27.8521 23.9779L31.5175 24.681V10.8529H26.3092C25.988 10.8529 25.68 10.7253 25.4529 10.4982C25.2258 10.2711 25.0982 9.96309 25.0982 9.64193C25.0982 9.32077 25.2258 9.01276 25.4529 8.78567C25.68 8.55857 25.988 8.43099 26.3092 8.43099H50.4954V4.89584C50.5178 4.58917 50.6555 4.30237 50.8807 4.09304C51.106 3.88371 51.4021 3.76736 51.7096 3.76736C52.017 3.76736 52.3131 3.88371 52.5384 4.09304C52.7636 4.30237 52.9013 4.58917 52.9237 4.89584V8.46355H78.6594C78.9806 8.46355 79.2886 8.59113 79.5157 8.81822C79.7428 9.04532 79.8704 9.35332 79.8704 9.67448C79.8704 9.99564 79.7428 10.3037 79.5157 10.5307C79.2886 10.7578 78.9806 10.8854 78.6594 10.8854H73.4967V40.8399H78.7766C79.0978 40.8399 79.4058 40.9674 79.6329 41.1945C79.86 41.4216 79.9875 41.7296 79.9875 42.0508C79.9875 42.3719 79.86 42.68 79.6329 42.9071C79.4058 43.1341 79.0978 43.2617 78.7766 43.2617H53.093V48.8281C53.1466 48.8751 53.2031 48.9186 53.2623 48.9583L60.8274 56.1198C60.9539 56.2252 61.0575 56.3554 61.1317 56.5024C61.2059 56.6494 61.2491 56.81 61.2588 56.9744C61.2685 57.1388 61.2444 57.3034 61.1879 57.4581C61.1315 57.6127 61.0439 57.7542 60.9307 57.8737C60.8174 57.9932 60.6808 58.0882 60.5294 58.1529C60.378 58.2175 60.2149 58.2505 60.0502 58.2496C59.8856 58.2487 59.7228 58.2141 59.5721 58.1479C59.4213 58.0817 59.2858 57.9853 59.1737 57.8646L53.093 52.0833V57.2917C53.0705 57.5983 52.9329 57.8851 52.7076 58.0945C52.4824 58.3038 52.1863 58.4202 51.8788 58.4202C51.5713 58.4202 51.2752 58.3038 51.05 58.0945C50.8248 57.8851 50.6871 57.5983 50.6646 57.2917V51.875L44.356 57.8711C44.2416 57.9812 44.1064 58.0674 43.9584 58.1247C43.8103 58.1821 43.6524 58.2095 43.4936 58.2052C43.3349 58.201 43.1786 58.1652 43.0339 58.1C42.8891 58.0349 42.7587 57.9415 42.6503 57.8255C42.5396 57.7121 42.4528 57.5776 42.395 57.43C42.3373 57.2824 42.3097 57.1247 42.3139 56.9663C42.3182 56.8079 42.3542 56.6519 42.4198 56.5076C42.4854 56.3633 42.5793 56.2337 42.6959 56.1263L50.261 48.9649C50.3756 48.8521 50.5133 48.7654 50.6646 48.7109V43.2617H26.2831C25.962 43.2617 25.654 43.1341 25.4269 42.9071C25.1998 42.68 25.0722 42.3719 25.0722 42.0508C25.0722 41.7296 25.1998 41.4216 25.4269 41.1945C25.654 40.9674 25.962 40.8399 26.2831 40.8399H31.4915V31.1393L25.4563 29.9479C24.6493 29.811 23.9264 29.3679 23.4381 28.7109L20.8795 25.1628V25.2539L20.6711 35.5274L23.2753 51.9596L24.2584 57.5912C24.8118 61.3542 19.05 63.5873 17.6243 58.6458L14.2649 38.8412L10.8469 58.9649C10.1959 62.6042 4.25187 62.6367 4.21281 58.2162L7.98234 35.6576L7.69588 23.4766C7.37477 23.87 7.11369 24.3088 6.92114 24.7787C6.51966 25.7231 6.29883 26.7345 6.2701 27.7604L5.74927 34.8633C5.46281 38.5742 -0.0645336 38.8021 0.000570585 34.7982C0.0331227 33.0013 0.195883 31.1914 0.391196 29.349C0.7688 25.8203 0.846925 23.6328 2.85864 20.1172C3.61183 18.8114 4.60598 17.6604 5.78833 16.7253C6.72044 15.9895 7.80637 15.4733 8.96541 15.2148C9.15823 15.0832 9.34102 14.9374 9.51229 14.7787ZM33.9394 24.9089L40.7493 17.7474C40.8925 17.5861 41.0667 17.4553 41.2615 17.3628C41.4564 17.2702 41.6678 17.2178 41.8833 17.2086C42.0988 17.1995 42.314 17.2338 42.5159 17.3094C42.7179 17.3851 42.9026 17.5007 43.059 17.6492C43.2154 17.7978 43.3403 17.9762 43.4263 18.1741C43.5123 18.3719 43.5576 18.5849 43.5596 18.8006C43.5616 19.0163 43.5201 19.2302 43.4377 19.4295C43.3553 19.6289 43.2337 19.8096 43.08 19.9609L36.6737 26.6927C36.9729 27.1769 37.1367 27.7323 37.1483 28.3013C37.1599 28.8703 37.0187 29.4319 36.7395 29.9278C36.4603 30.4237 36.0533 30.8357 35.5608 31.1209C35.0684 31.4061 34.5084 31.5541 33.9394 31.5495V40.8399H71.0943V10.8529H33.9394V24.9089Z" fill="#007AFF"/>
</svg>
