<svg width="30" height="30" viewBox="0 0 30 30" fill="none" xmlns="http://www.w3.org/2000/svg">
<path opacity="0.5" d="M11.25 8.75C11.25 6.625 12.875 5 15 5C17.125 5 18.75 6.625 18.75 8.75V11.25H21.25V8.75C21.25 5.25 18.5 2.5 15 2.5C11.5 2.5 8.75 5.25 8.75 8.75V11.25H11.25V8.75ZM16.875 18.125C16.875 17.125 16 16.25 15 16.25C14 16.25 13.125 17.125 13.125 18.125C13.125 18.625 13.375 19.125 13.75 19.5V21.25C13.75 22 14.25 22.5 15 22.5C15.75 22.5 16.25 22 16.25 21.25V19.5C16.625 19.125 16.875 18.625 16.875 18.125Z" fill="black"/>
<path d="M21.25 11.25H8.75C6.625 11.25 5 12.875 5 15V23.75C5 25.875 6.625 27.5 8.75 27.5H21.25C23.375 27.5 25 25.875 25 23.75V15C25 12.875 23.375 11.25 21.25 11.25ZM16.25 19.5V21.25C16.25 22 15.75 22.5 15 22.5C14.25 22.5 13.75 22 13.75 21.25V19.5C13.375 19.125 13.125 18.625 13.125 18.125C13.125 17.125 14 16.25 15 16.25C16 16.25 16.875 17.125 16.875 18.125C16.875 18.625 16.625 19.125 16.25 19.5Z" fill="black"/>
</svg>
