<svg width="30" height="31" viewBox="0 0 30 31" fill="none" xmlns="http://www.w3.org/2000/svg">
<path fill-rule="evenodd" clip-rule="evenodd" d="M20 11.75C20 13.0761 19.4732 14.3479 18.5355 15.2855C17.5979 16.2232 16.3261 16.75 15 16.75C13.6739 16.75 12.4021 16.2232 11.4645 15.2855C10.5268 14.3479 10 13.0761 10 11.75C10 10.4239 10.5268 9.15215 11.4645 8.21447C12.4021 7.27678 13.6739 6.75 15 6.75C16.3261 6.75 17.5979 7.27678 18.5355 8.21447C19.4732 9.15215 20 10.4239 20 11.75ZM17.5 11.75C17.5 12.413 17.2366 13.0489 16.7678 13.5178C16.2989 13.9866 15.663 14.25 15 14.25C14.337 14.25 13.7011 13.9866 13.2322 13.5178C12.7634 13.0489 12.5 12.413 12.5 11.75C12.5 11.087 12.7634 10.4511 13.2322 9.98223C13.7011 9.51339 14.337 9.25 15 9.25C15.663 9.25 16.2989 9.51339 16.7678 9.98223C17.2366 10.4511 17.5 11.087 17.5 11.75Z" fill="#F8FAFC"/>
<path fill-rule="evenodd" clip-rule="evenodd" d="M15 1.75C7.40625 1.75 1.25 7.90625 1.25 15.5C1.25 23.0938 7.40625 29.25 15 29.25C22.5938 29.25 28.75 23.0938 28.75 15.5C28.75 7.90625 22.5938 1.75 15 1.75ZM3.75 15.5C3.75 18.1125 4.64125 20.5175 6.135 22.4275C7.18404 21.0499 8.53737 19.9334 10.0893 19.1654C11.6412 18.3973 13.3497 17.9985 15.0812 18C16.7904 17.9984 18.4774 18.3869 20.0137 19.136C21.5499 19.885 22.895 20.9749 23.9462 22.3225C25.0293 20.902 25.7585 19.244 26.0736 17.4857C26.3887 15.7275 26.2805 13.9194 25.7581 12.2112C25.2357 10.503 24.314 8.94381 23.0694 7.66255C21.8247 6.38128 20.2928 5.41482 18.6005 4.84314C16.9081 4.27145 15.104 4.11096 13.3373 4.37497C11.5707 4.63897 9.89224 5.31986 8.44096 6.36132C6.98968 7.40277 5.80726 8.77484 4.99154 10.364C4.17581 11.9532 3.75023 13.7137 3.75 15.5ZM15 26.75C12.4174 26.7539 9.91283 25.8654 7.91 24.235C8.71616 23.0809 9.78917 22.1386 11.0377 21.4884C12.2863 20.8381 13.6735 20.499 15.0812 20.5C16.4715 20.4989 17.8419 20.8295 19.0787 21.4643C20.3155 22.0991 21.383 23.0198 22.1925 24.15C20.1741 25.8334 17.6282 26.7537 15 26.75Z" fill="#F8FAFC"/>
</svg>
