<svg width="30" height="31" viewBox="0 0 30 31" fill="none" xmlns="http://www.w3.org/2000/svg">
<path d="M4.43555 26.6725H25.5605C25.7263 26.6725 25.8853 26.6066 26.0025 26.4894C26.1197 26.3722 26.1855 26.2132 26.1855 26.0475C26.1855 25.8817 26.1197 25.7228 26.0025 25.6055C25.8853 25.4883 25.7263 25.4225 25.5605 25.4225H4.43555C4.26979 25.4225 4.11082 25.4883 3.9936 25.6055C3.87639 25.7228 3.81055 25.8817 3.81055 26.0475C3.81055 26.2132 3.87639 26.3722 3.9936 26.4894C4.11082 26.6066 4.26979 26.6725 4.43555 26.6725ZM12.138 21.975C12.6658 21.8266 13.1474 21.5471 13.538 21.1625L25.463 9.23749C25.8714 8.8275 26.1007 8.27241 26.1007 7.69374C26.1007 7.11507 25.8714 6.55997 25.463 6.14999L24.288 4.98749C23.8719 4.59087 23.3191 4.36963 22.7443 4.36963C22.1695 4.36963 21.6167 4.59087 21.2005 4.98749L9.27555 16.9C8.891 17.2886 8.61515 17.7714 8.47555 18.3L7.55055 21.75C7.50706 21.9076 7.50612 22.0739 7.54784 22.232C7.58956 22.3901 7.67245 22.5343 7.78805 22.65C7.9652 22.8236 8.20253 22.9221 8.45055 22.925L12.138 21.975ZM12.6505 20.275C12.42 20.5095 12.1308 20.6779 11.813 20.7625L10.6005 21.0875L9.35055 19.8375L9.67555 18.625C9.76185 18.3079 9.92997 18.0191 10.163 17.7875L10.638 17.325L13.1255 19.8125L12.6505 20.275ZM14.013 18.925L11.5255 16.4375L19.938 8.02499L22.4255 10.5125L14.013 18.925ZM24.5755 8.36249L23.313 9.62499L20.8255 7.13749L22.088 5.86249C22.2638 5.68692 22.5021 5.58831 22.7505 5.58831C22.999 5.58831 23.2373 5.68692 23.413 5.86249L24.5755 7.03749C24.7499 7.21391 24.8477 7.45195 24.8477 7.69999C24.8477 7.94802 24.7499 8.18606 24.5755 8.36249Z" fill="#007AFF"/>
</svg>
