<svg width="26" height="26" viewBox="0 0 26 26" fill="none" xmlns="http://www.w3.org/2000/svg">
<path fill-rule="evenodd" clip-rule="evenodd" d="M19.8455 15.6359C21.1964 13.8943 21.8331 11.7035 21.626 9.50911C21.4189 7.31474 20.3836 5.28169 18.7307 3.82355C17.0779 2.36542 14.9316 1.59174 12.7285 1.65991C10.5254 1.72808 8.43109 2.63299 6.87153 4.19053C5.31062 5.74915 4.40276 7.84431 4.33296 10.049C4.26316 12.2538 5.03667 14.4022 6.49587 16.0564C7.95506 17.7106 9.99012 18.7462 12.1863 18.9521C14.3826 19.158 16.5746 18.5187 18.3159 17.1645L18.3625 17.2133L22.958 21.8099C23.0586 21.9105 23.1781 21.9904 23.3096 22.0448C23.4411 22.0993 23.5821 22.1273 23.7244 22.1273C23.8668 22.1273 24.0077 22.0993 24.1392 22.0448C24.2707 21.9904 24.3902 21.9105 24.4909 21.8099C24.5915 21.7092 24.6714 21.5897 24.7258 21.4582C24.7803 21.3267 24.8083 21.1857 24.8083 21.0434C24.8083 20.9011 24.7803 20.7601 24.7258 20.6286C24.6714 20.4971 24.5915 20.3776 24.4909 20.2769L19.8943 15.6814C19.8785 15.6658 19.8622 15.6507 19.8455 15.6359ZM17.5965 5.72344C18.2082 6.32521 18.6946 7.04213 19.0278 7.83284C19.361 8.62355 19.5344 9.47241 19.5379 10.3305C19.5414 11.1885 19.3749 12.0387 19.0482 12.8321C18.7214 13.6255 18.2408 14.3464 17.6341 14.9531C17.0274 15.5598 16.3065 16.0404 15.5131 16.3672C14.7197 16.6939 13.8695 16.8604 13.0115 16.8569C12.1534 16.8534 11.3046 16.68 10.5138 16.3468C9.72314 16.0136 9.00622 15.5272 8.40445 14.9155C7.20186 13.6932 6.53099 12.0452 6.53798 10.3305C6.54496 8.61573 7.22923 6.97322 8.44173 5.76072C9.65423 4.54822 11.2967 3.86395 13.0115 3.85697C14.7262 3.84999 16.3742 4.52086 17.5965 5.72344Z" fill="black"/>
</svg>
