<svg width="300" height="104" viewBox="0 0 300 104" fill="none" xmlns="http://www.w3.org/2000/svg">
<path d="M38.7516 65.4078L26.5098 83.5527H71.5389L103.145 36.7061H69.9108L50.5464 65.4078H38.7516Z" fill="#312ECB"/>
<path d="M37.7234 14.2744H80.7133L49.1071 61.1211H6.11719L37.7234 14.2744Z" fill="#007AFF"/>
<path d="M137.138 40.3426C135.253 40.3426 133.607 39.9144 132.199 39.0579C130.79 38.2014 129.696 37.0024 128.915 35.4607C128.135 33.9191 127.745 32.1205 127.745 30.0649C127.745 28.0284 128.145 26.2299 128.944 24.6692C129.743 23.1085 130.876 21.8904 132.341 21.0149C133.826 20.1204 135.577 19.6731 137.594 19.6731C139.878 19.6731 141.781 20.225 143.304 21.3289C144.827 22.4328 145.816 23.9555 146.273 25.8968H142.847C142.543 24.831 141.943 23.9935 141.049 23.3845C140.154 22.7754 139.003 22.4709 137.594 22.4709C135.501 22.4709 133.854 23.1466 132.655 24.4979C131.456 25.8492 130.857 27.7144 130.857 30.0935C130.857 32.4726 131.447 34.3283 132.627 35.6605C133.807 36.9928 135.377 37.659 137.337 37.659C139.317 37.659 140.801 37.0975 141.791 35.9746C142.8 34.8517 143.39 33.3576 143.561 31.4924H138.137V29.1514H146.616V40H143.847L143.59 37.0595C142.923 38.1062 142.086 38.9151 141.077 39.4861C140.069 40.0571 138.755 40.3426 137.138 40.3426ZM156.484 40.3426C155.094 40.3426 153.857 40.0381 152.772 39.429C151.707 38.8009 150.869 37.935 150.26 36.8311C149.651 35.7272 149.346 34.4425 149.346 32.9769C149.346 31.4924 149.641 30.1887 150.231 29.0657C150.841 27.9428 151.678 27.0673 152.744 26.4392C153.829 25.8111 155.085 25.4971 156.512 25.4971C157.902 25.4971 159.11 25.8111 160.138 26.4392C161.166 27.0483 161.965 27.8667 162.536 28.8944C163.107 29.9222 163.393 31.0546 163.393 32.2918C163.393 32.4821 163.383 32.6915 163.364 32.9198C163.364 33.1292 163.355 33.3671 163.335 33.6336H152.316C152.411 35.0039 152.858 36.0507 153.657 36.774C154.476 37.4782 155.418 37.8303 156.484 37.8303C157.34 37.8303 158.054 37.6399 158.625 37.2593C159.215 36.8596 159.653 36.3267 159.938 35.6605H162.964C162.584 36.9928 161.822 38.1062 160.68 39.0008C159.557 39.8953 158.159 40.3426 156.484 40.3426ZM156.484 27.9809C155.475 27.9809 154.58 28.2854 153.8 28.8944C153.02 29.4844 152.544 30.379 152.373 31.578H160.366C160.309 30.4741 159.919 29.5986 159.196 28.9515C158.473 28.3044 157.569 27.9809 156.484 27.9809ZM174.184 40.3426C173.08 40.3426 172.1 40.1237 171.243 39.686C170.406 39.2482 169.74 38.6296 169.245 37.8303L168.931 40H166.218V19.4447H169.245V28.038C169.701 27.3718 170.33 26.7818 171.129 26.2679C171.928 25.754 172.956 25.4971 174.212 25.4971C175.583 25.4971 176.791 25.8207 177.838 26.4678C178.885 27.1149 179.703 27.9999 180.293 29.1228C180.902 30.2458 181.207 31.5209 181.207 32.9484C181.207 34.3758 180.902 35.651 180.293 36.774C179.703 37.8779 178.885 38.7534 177.838 39.4005C176.791 40.0285 175.573 40.3426 174.184 40.3426ZM173.67 37.7161C174.964 37.7161 176.03 37.2783 176.867 36.4028C177.705 35.5083 178.123 34.3473 178.123 32.9198C178.123 31.9872 177.933 31.1593 177.552 30.4361C177.172 29.7128 176.648 29.1514 175.982 28.7517C175.316 28.333 174.545 28.1236 173.67 28.1236C172.376 28.1236 171.31 28.5709 170.472 29.4654C169.654 30.3599 169.245 31.5114 169.245 32.9198C169.245 34.3473 169.654 35.5083 170.472 36.4028C171.31 37.2783 172.376 37.7161 173.67 37.7161ZM184.166 40V25.8397H186.878L187.135 28.5233C187.63 27.5907 188.315 26.8579 189.19 26.325C190.085 25.7731 191.16 25.4971 192.416 25.4971V28.666H191.589C190.751 28.666 189.999 28.8088 189.333 29.0943C188.686 29.3607 188.163 29.827 187.763 30.4932C187.382 31.1403 187.192 32.0443 187.192 33.2053V40H184.166ZM199.493 40.3426C198.294 40.3426 197.305 40.1427 196.524 39.7431C195.744 39.3434 195.163 38.82 194.783 38.1729C194.402 37.5067 194.212 36.7835 194.212 36.0031C194.212 34.6328 194.745 33.5479 195.81 32.7485C196.876 31.9492 198.399 31.5495 200.378 31.5495H204.09V31.2925C204.09 30.1887 203.785 29.3607 203.176 28.8088C202.586 28.2568 201.815 27.9809 200.864 27.9809C200.026 27.9809 199.293 28.1902 198.665 28.6089C198.056 29.0086 197.685 29.6082 197.552 30.4075H194.526C194.621 29.3798 194.963 28.5043 195.553 27.781C196.163 27.0387 196.924 26.4773 197.837 26.0966C198.77 25.6969 199.788 25.4971 200.892 25.4971C202.872 25.4971 204.404 26.0205 205.489 27.0673C206.573 28.0951 207.116 29.5035 207.116 31.2925V40H204.489L204.232 37.5733C203.833 38.3537 203.252 39.0103 202.491 39.5432C201.73 40.0761 200.73 40.3426 199.493 40.3426ZM200.093 37.8874C200.911 37.8874 201.596 37.697 202.148 37.3164C202.719 36.9167 203.157 36.3933 203.462 35.7462C203.785 35.0991 203.985 34.3854 204.061 33.605H200.692C199.493 33.605 198.637 33.8144 198.123 34.2331C197.628 34.6518 197.381 35.1752 197.381 35.8033C197.381 36.4504 197.619 36.9643 198.094 37.3449C198.589 37.7066 199.255 37.8874 200.093 37.8874ZM217.323 40V20.0157H223.804C226.145 20.0157 228.067 20.4249 229.571 21.2433C231.094 22.0617 232.217 23.2227 232.94 24.7263C233.682 26.2108 234.053 27.9809 234.053 30.0364C234.053 32.0729 233.682 33.8429 232.94 35.3465C232.217 36.8311 231.094 37.9825 229.571 38.8009C228.067 39.6003 226.145 40 223.804 40H217.323ZM220.35 37.4306H223.69C225.498 37.4306 226.925 37.1356 227.972 36.5456C229.038 35.9556 229.799 35.1086 230.256 34.0047C230.732 32.9008 230.97 31.578 230.97 30.0364C230.97 28.4947 230.732 27.1625 230.256 26.0395C229.799 24.9166 229.038 24.0601 227.972 23.4701C226.925 22.8611 225.498 22.5565 223.69 22.5565H220.35V37.4306ZM238.682 23.1561C238.111 23.1561 237.635 22.9848 237.254 22.6422C236.893 22.2806 236.712 21.8333 236.712 21.3004C236.712 20.7675 236.893 20.3297 237.254 19.9871C237.635 19.6255 238.111 19.4447 238.682 19.4447C239.253 19.4447 239.719 19.6255 240.081 19.9871C240.461 20.3297 240.652 20.7675 240.652 21.3004C240.652 21.8333 240.461 22.2806 240.081 22.6422C239.719 22.9848 239.253 23.1561 238.682 23.1561ZM237.169 40V25.8397H240.195V40H237.169ZM249.671 35.6605C248.929 35.6605 248.244 35.5749 247.616 35.4036L246.388 36.6027C246.597 36.7359 246.854 36.8501 247.159 36.9453C247.463 37.0404 247.892 37.1261 248.443 37.2022C248.995 37.2783 249.747 37.3545 250.699 37.4306C252.583 37.6019 253.944 38.0587 254.781 38.8009C255.619 39.5242 256.037 40.4948 256.037 41.7129C256.037 42.5504 255.809 43.3402 255.352 44.0825C254.915 44.8438 254.22 45.4529 253.268 45.9096C252.336 46.3855 251.137 46.6234 249.671 46.6234C247.692 46.6234 246.083 46.2427 244.846 45.4814C243.628 44.7391 243.019 43.6067 243.019 42.0841C243.019 41.4941 243.171 40.9041 243.476 40.314C243.799 39.7431 244.304 39.2006 244.989 38.6867C244.589 38.5155 244.237 38.3346 243.933 38.1443C243.647 37.935 243.39 37.7256 243.162 37.5162V36.8311L245.617 34.3187C244.513 33.3671 243.961 32.1205 243.961 30.5788C243.961 29.6462 244.18 28.7993 244.618 28.038C245.075 27.2576 245.731 26.6391 246.588 26.1823C247.444 25.7255 248.472 25.4971 249.671 25.4971C250.47 25.4971 251.213 25.6113 251.898 25.8397H257.179V27.8381L254.667 27.9809C255.124 28.7612 255.352 29.6272 255.352 30.5788C255.352 31.5305 255.124 32.3869 254.667 33.1482C254.229 33.9095 253.582 34.5186 252.726 34.9754C251.888 35.4322 250.87 35.6605 249.671 35.6605ZM249.671 33.291C250.547 33.291 251.251 33.0626 251.784 32.6058C252.336 32.13 252.612 31.4638 252.612 30.6074C252.612 29.7319 252.336 29.0657 251.784 28.6089C251.251 28.1522 250.547 27.9238 249.671 27.9238C248.777 27.9238 248.053 28.1522 247.501 28.6089C246.968 29.0657 246.702 29.7319 246.702 30.6074C246.702 31.4638 246.968 32.13 247.501 32.6058C248.053 33.0626 248.777 33.291 249.671 33.291ZM245.874 41.7986C245.874 42.617 246.236 43.226 246.959 43.6257C247.682 44.0444 248.586 44.2538 249.671 44.2538C250.718 44.2538 251.565 44.0254 252.212 43.5686C252.859 43.1309 253.183 42.5409 253.183 41.7986C253.183 41.2466 252.964 40.7708 252.526 40.3711C252.088 39.9905 251.26 39.7526 250.042 39.6574C249.129 39.6003 248.32 39.5147 247.616 39.4005C246.949 39.7621 246.493 40.1523 246.245 40.571C245.998 40.9897 245.874 41.3989 245.874 41.7986ZM261.278 23.1561C260.707 23.1561 260.231 22.9848 259.85 22.6422C259.489 22.2806 259.308 21.8333 259.308 21.3004C259.308 20.7675 259.489 20.3297 259.85 19.9871C260.231 19.6255 260.707 19.4447 261.278 19.4447C261.849 19.4447 262.315 19.6255 262.676 19.9871C263.057 20.3297 263.247 20.7675 263.247 21.3004C263.247 21.8333 263.057 22.2806 262.676 22.6422C262.315 22.9848 261.849 23.1561 261.278 23.1561ZM259.764 40V25.8397H262.791V40H259.764ZM272.41 40C271.02 40 269.916 39.6669 269.098 39.0008C268.28 38.3156 267.87 37.107 267.87 35.3751V28.3805H265.444V25.8397H267.87L268.242 22.2425H270.897V25.8397H274.893V28.3805H270.897V35.3751C270.897 36.1554 271.058 36.6978 271.382 37.0024C271.725 37.2878 272.305 37.4306 273.123 37.4306H274.751V40H272.41ZM282.496 40.3426C281.297 40.3426 280.307 40.1427 279.527 39.7431C278.747 39.3434 278.166 38.82 277.785 38.1729C277.405 37.5067 277.214 36.7835 277.214 36.0031C277.214 34.6328 277.747 33.5479 278.813 32.7485C279.879 31.9492 281.402 31.5495 283.381 31.5495H287.092V31.2925C287.092 30.1887 286.788 29.3607 286.179 28.8088C285.589 28.2568 284.818 27.9809 283.866 27.9809C283.029 27.9809 282.296 28.1902 281.668 28.6089C281.059 29.0086 280.688 29.6082 280.555 30.4075H277.528C277.624 29.3798 277.966 28.5043 278.556 27.781C279.165 27.0387 279.927 26.4773 280.84 26.0966C281.773 25.6969 282.791 25.4971 283.895 25.4971C285.874 25.4971 287.406 26.0205 288.491 27.0673C289.576 28.0951 290.119 29.5035 290.119 31.2925V40H287.492L287.235 37.5733C286.835 38.3537 286.255 39.0103 285.494 39.5432C284.732 40.0761 283.733 40.3426 282.496 40.3426ZM283.095 37.8874C283.914 37.8874 284.599 37.697 285.151 37.3164C285.722 36.9167 286.16 36.3933 286.464 35.7462C286.788 35.0991 286.988 34.3854 287.064 33.605H283.695C282.496 33.605 281.639 33.8144 281.126 34.2331C280.631 34.6518 280.383 35.1752 280.383 35.8033C280.383 36.4504 280.621 36.9643 281.097 37.3449C281.592 37.7066 282.258 37.8874 283.095 37.8874ZM293.333 40V19.4447H296.359V40H293.333ZM135.053 83.3426C133.588 83.3426 132.303 83.0856 131.199 82.5718C130.095 82.0579 129.229 81.3251 128.601 80.3735C127.992 79.4219 127.678 78.2894 127.659 76.9762H130.857C130.876 78.042 131.247 78.946 131.97 79.6883C132.693 80.4306 133.712 80.8017 135.025 80.8017C136.186 80.8017 137.09 80.5258 137.737 79.9738C138.403 79.4028 138.736 78.6796 138.736 77.8041C138.736 77.0999 138.574 76.5289 138.251 76.0911C137.946 75.6534 137.518 75.2918 136.966 75.0063C136.433 74.7208 135.815 74.4638 135.111 74.2355C134.406 74.0071 133.664 73.7596 132.884 73.4932C131.342 72.9793 130.181 72.3132 129.401 71.4947C128.639 70.6763 128.259 69.601 128.259 68.2687C128.24 67.1458 128.497 66.1656 129.03 65.3282C129.582 64.4907 130.343 63.8436 131.314 63.3868C132.303 62.911 133.455 62.6731 134.768 62.6731C136.062 62.6731 137.195 62.911 138.165 63.3868C139.155 63.8626 139.926 64.5288 140.478 65.3853C141.03 66.2227 141.315 67.2029 141.334 68.3258H138.137C138.137 67.8119 138.004 67.3266 137.737 66.8698C137.471 66.394 137.08 66.0038 136.567 65.6993C136.053 65.3948 135.425 65.2425 134.682 65.2425C133.731 65.2235 132.941 65.4614 132.313 65.9562C131.704 66.4511 131.399 67.1363 131.399 68.0118C131.399 68.7921 131.628 69.3916 132.084 69.8104C132.541 70.2291 133.169 70.5812 133.969 70.8667C134.768 71.1331 135.682 71.4472 136.709 71.8088C137.699 72.1323 138.584 72.5225 139.364 72.9793C140.145 73.4361 140.763 74.0356 141.22 74.7779C141.696 75.5202 141.934 76.4623 141.934 77.6042C141.934 78.613 141.677 79.5551 141.163 80.4306C140.649 81.2871 139.878 81.9913 138.85 82.5432C137.823 83.0761 136.557 83.3426 135.053 83.3426ZM151.523 83.3426C150.134 83.3426 148.887 83.0285 147.783 82.4005C146.698 81.7724 145.842 80.9064 145.214 79.8025C144.605 78.6796 144.3 77.3854 144.3 75.9198C144.3 74.4543 144.605 73.1696 145.214 72.0657C145.842 70.9428 146.698 70.0673 147.783 69.4392C148.887 68.8111 150.134 68.4971 151.523 68.4971C153.274 68.4971 154.74 68.9539 155.92 69.8675C157.119 70.781 157.89 72.0181 158.232 73.5788H155.063C154.873 72.7985 154.454 72.1894 153.807 71.7517C153.16 71.3139 152.399 71.0951 151.523 71.0951C150.781 71.0951 150.096 71.2854 149.468 71.666C148.839 72.0277 148.335 72.5701 147.954 73.2933C147.574 73.9975 147.383 74.873 147.383 75.9198C147.383 76.9666 147.574 77.8517 147.954 78.5749C148.335 79.2791 148.839 79.8215 149.468 80.2022C150.096 80.5828 150.781 80.7732 151.523 80.7732C152.399 80.7732 153.16 80.5543 153.807 80.1165C154.454 79.6788 154.873 79.0602 155.063 78.2609H158.232C157.909 79.7835 157.147 81.0111 155.948 81.9437C154.749 82.8763 153.274 83.3426 151.523 83.3426ZM161.2 83V62.4447H164.226V71.1236C164.702 70.3052 165.359 69.6676 166.196 69.2108C167.053 68.735 167.995 68.4971 169.023 68.4971C170.716 68.4971 172.049 69.03 173.019 70.0958C173.99 71.1617 174.475 72.7509 174.475 74.8635V83H171.478V75.1776C171.478 72.4369 170.383 71.0665 168.195 71.0665C167.053 71.0665 166.101 71.4662 165.34 72.2656C164.597 73.0649 164.226 74.2069 164.226 75.6915V83H161.2ZM184.349 83.3426C182.998 83.3426 181.779 83.0381 180.695 82.429C179.629 81.8009 178.782 80.935 178.154 79.8311C177.526 78.7081 177.212 77.4044 177.212 75.9198C177.212 74.4353 177.526 73.1411 178.154 72.0372C178.801 70.9142 179.667 70.0483 180.752 69.4392C181.837 68.8111 183.045 68.4971 184.377 68.4971C185.729 68.4971 186.937 68.8111 188.003 69.4392C189.088 70.0483 189.945 70.9142 190.573 72.0372C191.22 73.1411 191.543 74.4353 191.543 75.9198C191.543 77.4044 191.22 78.7081 190.573 79.8311C189.945 80.935 189.088 81.8009 188.003 82.429C186.918 83.0381 185.7 83.3426 184.349 83.3426ZM184.349 80.7446C185.072 80.7446 185.738 80.5638 186.347 80.2022C186.975 79.8406 187.48 79.3077 187.86 78.6035C188.241 77.8802 188.431 76.9857 188.431 75.9198C188.431 74.854 188.241 73.969 187.86 73.2648C187.499 72.5415 187.004 71.9991 186.376 71.6375C185.767 71.2759 185.101 71.0951 184.377 71.0951C183.654 71.0951 182.979 71.2759 182.35 71.6375C181.741 71.9991 181.247 72.5415 180.866 73.2648C180.485 73.969 180.295 74.854 180.295 75.9198C180.295 76.9857 180.485 77.8802 180.866 78.6035C181.247 79.3077 181.741 79.8406 182.35 80.2022C182.96 80.5638 183.626 80.7446 184.349 80.7446ZM201.125 83.3426C199.774 83.3426 198.556 83.0381 197.471 82.429C196.405 81.8009 195.558 80.935 194.93 79.8311C194.302 78.7081 193.988 77.4044 193.988 75.9198C193.988 74.4353 194.302 73.1411 194.93 72.0372C195.577 70.9142 196.443 70.0483 197.528 69.4392C198.613 68.8111 199.822 68.4971 201.154 68.4971C202.505 68.4971 203.714 68.8111 204.78 69.4392C205.864 70.0483 206.721 70.9142 207.349 72.0372C207.996 73.1411 208.32 74.4353 208.32 75.9198C208.32 77.4044 207.996 78.7081 207.349 79.8311C206.721 80.935 205.864 81.8009 204.78 82.429C203.695 83.0381 202.477 83.3426 201.125 83.3426ZM201.125 80.7446C201.848 80.7446 202.515 80.5638 203.124 80.2022C203.752 79.8406 204.256 79.3077 204.637 78.6035C205.017 77.8802 205.208 76.9857 205.208 75.9198C205.208 74.854 205.017 73.969 204.637 73.2648C204.275 72.5415 203.78 71.9991 203.152 71.6375C202.543 71.2759 201.877 71.0951 201.154 71.0951C200.431 71.0951 199.755 71.2759 199.127 71.6375C198.518 71.9991 198.023 72.5415 197.642 73.2648C197.262 73.969 197.071 74.854 197.071 75.9198C197.071 76.9857 197.262 77.8802 197.642 78.6035C198.023 79.3077 198.518 79.8406 199.127 80.2022C199.736 80.5638 200.402 80.7446 201.125 80.7446ZM211.278 83V62.4447H214.304V83H211.278Z" fill="#0F172A"/>
</svg>
