<svg width="50" height="50" viewBox="0 0 50 50" fill="none" xmlns="http://www.w3.org/2000/svg">
<rect width="50" height="50" rx="8" fill="#22C55E" fill-opacity="0.15"/>
<path d="M13.0537 38.8846C13.0615 38.1384 13.2583 37.4063 13.6259 36.7567C14.0128 36.0809 14.5702 35.5184 15.2426 35.1255C15.9149 34.7326 16.6786 34.5229 17.4573 34.5175C18.2356 34.5233 18.9989 34.7331 19.6708 35.126C20.3427 35.519 20.8998 36.0812 21.2866 36.7567C21.6551 37.406 21.8501 38.1389 21.8587 38.8846M28.1501 38.8846C28.1579 38.1384 28.3548 37.4063 28.7223 36.7567C29.109 36.0812 29.6661 35.519 30.3381 35.126C31.01 34.7331 31.7732 34.5233 32.5516 34.5175C33.7123 34.5191 34.8256 34.9783 35.65 35.7954C36.4743 36.6126 36.9433 37.7218 36.9551 38.8825M20.7316 24.3967C20.738 23.6746 20.9287 22.9653 21.2844 22.3353C21.6596 21.6799 22.2002 21.1344 22.8523 20.7535C23.5043 20.3726 24.245 20.1695 25.0001 20.1646C26.5216 20.1667 27.9637 21.0089 28.7137 22.3353C29.0694 22.9653 29.2601 23.6746 29.2687 24.3967M17.4573 32.5717C18.106 32.5717 18.7282 32.314 19.1869 31.8553C19.6456 31.3966 19.9034 30.7744 19.9034 30.1257C19.9034 29.4769 19.6456 28.8548 19.1869 28.396C18.7282 27.9373 18.106 27.6796 17.4573 27.6796C16.8085 27.6796 16.1864 27.9373 15.7276 28.396C15.2689 28.8548 15.0112 29.4769 15.0112 30.1257C15.0112 30.7744 15.2689 31.3966 15.7276 31.8553C16.1864 32.314 16.8085 32.5717 17.4573 32.5717ZM32.5537 32.5717C33.2024 32.5717 33.8246 32.314 34.2833 31.8553C34.7421 31.3966 34.9998 30.7744 34.9998 30.1257C34.9998 29.4769 34.7421 28.8548 34.2833 28.396C33.8246 27.9373 33.2024 27.6796 32.5537 27.6796C31.905 27.6796 31.2828 27.9373 30.8241 28.396C30.3653 28.8548 30.1076 29.4769 30.1076 30.1257C30.1076 30.7744 30.3653 31.3966 30.8241 31.8553C31.2828 32.314 31.905 32.5717 32.5537 32.5717ZM24.998 18.6732C25.6033 18.6732 26.1837 18.4327 26.6117 18.0047C27.0397 17.5768 27.2801 16.9963 27.2801 16.391C27.2801 15.7858 27.0397 15.2053 26.6117 14.7773C26.1837 14.3493 25.6033 14.1089 24.998 14.1089C24.3927 14.1089 23.8123 14.3493 23.3843 14.7773C22.9563 15.2053 22.7159 15.7858 22.7159 16.391C22.7159 16.9963 22.9563 17.5768 23.3843 18.0047C23.8123 18.4327 24.3927 18.6732 24.998 18.6732Z" stroke="#22C55E" stroke-width="2.14286" stroke-linecap="round" stroke-linejoin="round"/>
<path d="M35.2477 11.1689H14.7534C14.3454 11.1689 13.954 11.331 13.6655 11.6196C13.3769 11.9081 13.2148 12.2995 13.2148 12.7075V22.8582C13.2148 23.7089 13.9048 24.3968 14.7534 24.3968H35.2477C35.6558 24.3968 36.0471 24.2347 36.3356 23.9462C36.6242 23.6576 36.7863 23.2663 36.7863 22.8582V12.7075C36.7863 12.2995 36.6242 11.9081 36.3356 11.6196C36.0471 11.331 35.6558 11.1689 35.2477 11.1689Z" stroke="#22C55E" stroke-width="2.14286" stroke-linecap="round" stroke-linejoin="round"/>
</svg>
