<svg width="50" height="50" viewBox="0 0 50 50" fill="none" xmlns="http://www.w3.org/2000/svg">
<rect width="50" height="50" rx="8" fill="#F43F5E" fill-opacity="0.15"/>
<path d="M17.5 35H26.25V37.5H17.5C16.1125 37.5 15 36.3875 15 35V15C15 14.337 15.2634 13.7011 15.7322 13.2322C16.2011 12.7634 16.837 12.5 17.5 12.5H32.5C33.163 12.5 33.7989 12.7634 34.2678 13.2322C34.7366 13.7011 35 14.337 35 15V25.675L33.125 24.65L32.5 25V15H26.25V25L23.125 22.1875L20 25V15H17.5V35ZM40 31.25L33.125 27.5L26.25 31.25L33.125 35L40 31.25ZM28.75 33.8625V36.3625L33.125 38.75L37.5 36.3625V33.8625L33.125 36.25L28.75 33.8625Z" fill="#F43F5E"/>
</svg>
