<svg width="50" height="50" viewBox="0 0 50 50" fill="none" xmlns="http://www.w3.org/2000/svg">
<rect width="50" height="50" rx="8" fill="#EDC700" fill-opacity="0.15"/>
<path d="M28.75 26.25H30.625V29.775L33.675 31.5375L32.7375 33.1625L28.75 30.8625V26.25ZM33.75 20H16.25V33.75H22.0875C21.55 32.6125 21.25 31.3375 21.25 30C21.25 27.6794 22.1719 25.4538 23.8128 23.8128C25.4538 22.1719 27.6794 21.25 30 21.25C31.3375 21.25 32.6125 21.55 33.75 22.0875V20ZM16.25 36.25C15.587 36.25 14.9511 35.9866 14.4822 35.5178C14.0134 35.0489 13.75 34.413 13.75 33.75V16.25C13.75 14.8625 14.8625 13.75 16.25 13.75H17.5V11.25H20V13.75H30V11.25H32.5V13.75H33.75C34.413 13.75 35.0489 14.0134 35.5178 14.4822C35.9866 14.9511 36.25 15.587 36.25 16.25V23.875C37.8 25.45 38.75 27.6125 38.75 30C38.75 32.3206 37.8281 34.5462 36.1872 36.1872C34.5462 37.8281 32.3206 38.75 30 38.75C27.6125 38.75 25.45 37.8 23.875 36.25H16.25ZM30 23.9375C28.3921 23.9375 26.8501 24.5762 25.7132 25.7132C24.5762 26.8501 23.9375 28.3921 23.9375 30C23.9375 33.35 26.65 36.0625 30 36.0625C30.7961 36.0625 31.5845 35.9057 32.32 35.601C33.0556 35.2964 33.7239 34.8498 34.2868 34.2868C34.8498 33.7239 35.2963 33.0556 35.601 32.32C35.9057 31.5845 36.0625 30.7961 36.0625 30C36.0625 26.65 33.35 23.9375 30 23.9375Z" fill="#EDC700"/>
</svg>
