<svg width="194" height="51" viewBox="0 0 194 51" fill="none" xmlns="http://www.w3.org/2000/svg">
<path d="M19.0032 32.0749L13 40.9729H35.0816L50.5808 18H34.2832L24.7872 32.0749H19.0032Z" fill="#312ECB"/>
<path d="M18.4992 7H39.5808L24.0816 29.9729H3L18.4992 7Z" fill="#007AFF"/>
<path d="M67.25 30.168C66.326 30.168 65.5187 29.958 64.828 29.538C64.1373 29.118 63.6007 28.53 63.218 27.774C62.8353 27.018 62.644 26.136 62.644 25.128C62.644 24.1293 62.84 23.2473 63.232 22.482C63.624 21.7167 64.1793 21.1193 64.898 20.69C65.626 20.2513 66.4847 20.032 67.474 20.032C68.594 20.032 69.5273 20.3027 70.274 20.844C71.0207 21.3853 71.506 22.132 71.73 23.084H70.05C69.9007 22.5613 69.6067 22.1507 69.168 21.852C68.7293 21.5533 68.1647 21.404 67.474 21.404C66.4473 21.404 65.64 21.7353 65.052 22.398C64.464 23.0607 64.17 23.9753 64.17 25.142C64.17 26.3087 64.4593 27.2187 65.038 27.872C65.6167 28.5253 66.3867 28.852 67.348 28.852C68.3187 28.852 69.0467 28.5767 69.532 28.026C70.0267 27.4753 70.316 26.7427 70.4 25.828H67.74V24.68H71.898V30H70.54L70.414 28.558C70.0873 29.0713 69.6767 29.468 69.182 29.748C68.6873 30.028 68.0433 30.168 67.25 30.168ZM76.7371 30.168C76.0557 30.168 75.4491 30.0187 74.9171 29.72C74.3944 29.412 73.9837 28.9873 73.6851 28.446C73.3864 27.9047 73.2371 27.2747 73.2371 26.556C73.2371 25.828 73.3817 25.1887 73.6711 24.638C73.9697 24.0873 74.3804 23.658 74.9031 23.35C75.4351 23.042 76.0511 22.888 76.7511 22.888C77.4324 22.888 78.0251 23.042 78.5291 23.35C79.0331 23.6487 79.4251 24.05 79.7051 24.554C79.9851 25.058 80.1251 25.6133 80.1251 26.22C80.1251 26.3133 80.1204 26.416 80.1111 26.528C80.1111 26.6307 80.1064 26.7473 80.0971 26.878H74.6931C74.7397 27.55 74.9591 28.0633 75.3511 28.418C75.7524 28.7633 76.2144 28.936 76.7371 28.936C77.1571 28.936 77.5071 28.8427 77.7871 28.656C78.0764 28.46 78.2911 28.1987 78.4311 27.872H79.9151C79.7284 28.5253 79.3551 29.0713 78.7951 29.51C78.2444 29.9487 77.5584 30.168 76.7371 30.168ZM76.7371 24.106C76.2424 24.106 75.8037 24.2553 75.4211 24.554C75.0384 24.8433 74.8051 25.282 74.7211 25.87H78.6411C78.6131 25.3287 78.4217 24.8993 78.0671 24.582C77.7124 24.2647 77.2691 24.106 76.7371 24.106ZM85.4169 30.168C84.8755 30.168 84.3949 30.0607 83.9749 29.846C83.5642 29.6313 83.2375 29.328 82.9949 28.936L82.8409 30H81.5109V19.92H82.9949V24.134C83.2189 23.8073 83.5269 23.518 83.9189 23.266C84.3109 23.014 84.8149 22.888 85.4309 22.888C86.1029 22.888 86.6955 23.0467 87.2089 23.364C87.7222 23.6813 88.1235 24.1153 88.4129 24.666C88.7115 25.2167 88.8609 25.842 88.8609 26.542C88.8609 27.242 88.7115 27.8673 88.4129 28.418C88.1235 28.9593 87.7222 29.3887 87.2089 29.706C86.6955 30.014 86.0982 30.168 85.4169 30.168ZM85.1649 28.88C85.7995 28.88 86.3222 28.6653 86.7329 28.236C87.1435 27.7973 87.3489 27.228 87.3489 26.528C87.3489 26.0707 87.2555 25.6647 87.0689 25.31C86.8822 24.9553 86.6255 24.68 86.2989 24.484C85.9722 24.2787 85.5942 24.176 85.1649 24.176C84.5302 24.176 84.0075 24.3953 83.5969 24.834C83.1955 25.2727 82.9949 25.8373 82.9949 26.528C82.9949 27.228 83.1955 27.7973 83.5969 28.236C84.0075 28.6653 84.5302 28.88 85.1649 28.88ZM90.3119 30V23.056H91.6419L91.7679 24.372C92.0106 23.9147 92.3466 23.5553 92.7759 23.294C93.2146 23.0233 93.7419 22.888 94.3579 22.888V24.442H93.9519C93.5413 24.442 93.1726 24.512 92.8459 24.652C92.5286 24.7827 92.2719 25.0113 92.0759 25.338C91.8893 25.6553 91.7959 26.0987 91.7959 26.668V30H90.3119ZM97.8283 30.168C97.2403 30.168 96.755 30.07 96.3723 29.874C95.9896 29.678 95.705 29.4213 95.5183 29.104C95.3316 28.7773 95.2383 28.4227 95.2383 28.04C95.2383 27.368 95.4996 26.836 96.0223 26.444C96.545 26.052 97.2916 25.856 98.2623 25.856H100.082V25.73C100.082 25.1887 99.933 24.7827 99.6343 24.512C99.345 24.2413 98.967 24.106 98.5003 24.106C98.0896 24.106 97.7303 24.2087 97.4223 24.414C97.1236 24.61 96.9416 24.904 96.8763 25.296H95.3923C95.439 24.792 95.607 24.3627 95.8963 24.008C96.195 23.644 96.5683 23.3687 97.0163 23.182C97.4736 22.986 97.973 22.888 98.5143 22.888C99.485 22.888 100.236 23.1447 100.768 23.658C101.3 24.162 101.566 24.8527 101.566 25.73V30H100.278L100.152 28.81C99.9563 29.1927 99.6716 29.5147 99.2983 29.776C98.925 30.0373 98.435 30.168 97.8283 30.168ZM98.1223 28.964C98.5236 28.964 98.8596 28.8707 99.1303 28.684C99.4103 28.488 99.625 28.2313 99.7743 27.914C99.933 27.5967 100.031 27.2467 100.068 26.864H98.4163C97.8283 26.864 97.4083 26.9667 97.1563 27.172C96.9136 27.3773 96.7923 27.634 96.7923 27.942C96.7923 28.2593 96.909 28.5113 97.1423 28.698C97.385 28.8753 97.7116 28.964 98.1223 28.964ZM106.572 30V20.2H109.75C110.898 20.2 111.841 20.4007 112.578 20.802C113.325 21.2033 113.875 21.7727 114.23 22.51C114.594 23.238 114.776 24.106 114.776 25.114C114.776 26.1127 114.594 26.9807 114.23 27.718C113.875 28.446 113.325 29.0107 112.578 29.412C111.841 29.804 110.898 30 109.75 30H106.572ZM108.056 28.74H109.694C110.581 28.74 111.281 28.5953 111.794 28.306C112.317 28.0167 112.69 27.6013 112.914 27.06C113.147 26.5187 113.264 25.87 113.264 25.114C113.264 24.358 113.147 23.7047 112.914 23.154C112.69 22.6033 112.317 22.1833 111.794 21.894C111.281 21.5953 110.581 21.446 109.694 21.446H108.056V28.74ZM117.046 21.74C116.766 21.74 116.532 21.656 116.346 21.488C116.168 21.3107 116.08 21.0913 116.08 20.83C116.08 20.5687 116.168 20.354 116.346 20.186C116.532 20.0087 116.766 19.92 117.046 19.92C117.326 19.92 117.554 20.0087 117.732 20.186C117.918 20.354 118.012 20.5687 118.012 20.83C118.012 21.0913 117.918 21.3107 117.732 21.488C117.554 21.656 117.326 21.74 117.046 21.74ZM116.304 30V23.056H117.788V30H116.304ZM122.435 27.872C122.071 27.872 121.735 27.83 121.427 27.746L120.825 28.334C120.927 28.3993 121.053 28.4553 121.203 28.502C121.352 28.5487 121.562 28.5907 121.833 28.628C122.103 28.6653 122.472 28.7027 122.939 28.74C123.863 28.824 124.53 29.048 124.941 29.412C125.351 29.7667 125.557 30.2427 125.557 30.84C125.557 31.2507 125.445 31.638 125.221 32.002C125.006 32.3753 124.665 32.674 124.199 32.898C123.741 33.1313 123.153 33.248 122.435 33.248C121.464 33.248 120.675 33.0613 120.069 32.688C119.471 32.324 119.173 31.7687 119.173 31.022C119.173 30.7327 119.247 30.4433 119.397 30.154C119.555 29.874 119.803 29.608 120.139 29.356C119.943 29.272 119.77 29.1833 119.621 29.09C119.481 28.9873 119.355 28.8847 119.243 28.782V28.446L120.447 27.214C119.905 26.7473 119.635 26.136 119.635 25.38C119.635 24.9227 119.742 24.5073 119.957 24.134C120.181 23.7513 120.503 23.448 120.923 23.224C121.343 23 121.847 22.888 122.435 22.888C122.827 22.888 123.191 22.944 123.527 23.056H126.117V24.036L124.885 24.106C125.109 24.4887 125.221 24.9133 125.221 25.38C125.221 25.8467 125.109 26.2667 124.885 26.64C124.67 27.0133 124.353 27.312 123.933 27.536C123.522 27.76 123.023 27.872 122.435 27.872ZM122.435 26.71C122.864 26.71 123.209 26.598 123.471 26.374C123.741 26.1407 123.877 25.814 123.877 25.394C123.877 24.9647 123.741 24.638 123.471 24.414C123.209 24.19 122.864 24.078 122.435 24.078C121.996 24.078 121.641 24.19 121.371 24.414C121.109 24.638 120.979 24.9647 120.979 25.394C120.979 25.814 121.109 26.1407 121.371 26.374C121.641 26.598 121.996 26.71 122.435 26.71ZM120.573 30.882C120.573 31.2833 120.75 31.582 121.105 31.778C121.459 31.9833 121.903 32.086 122.435 32.086C122.948 32.086 123.363 31.974 123.681 31.75C123.998 31.5353 124.157 31.246 124.157 30.882C124.157 30.6113 124.049 30.378 123.835 30.182C123.62 29.9953 123.214 29.8787 122.617 29.832C122.169 29.804 121.772 29.762 121.427 29.706C121.1 29.8833 120.876 30.0747 120.755 30.28C120.633 30.4853 120.573 30.686 120.573 30.882ZM128.126 21.74C127.846 21.74 127.613 21.656 127.426 21.488C127.249 21.3107 127.16 21.0913 127.16 20.83C127.16 20.5687 127.249 20.354 127.426 20.186C127.613 20.0087 127.846 19.92 128.126 19.92C128.406 19.92 128.635 20.0087 128.812 20.186C128.999 20.354 129.092 20.5687 129.092 20.83C129.092 21.0913 128.999 21.3107 128.812 21.488C128.635 21.656 128.406 21.74 128.126 21.74ZM127.384 30V23.056H128.868V30H127.384ZM133.585 30C132.904 30 132.363 29.8367 131.961 29.51C131.56 29.174 131.359 28.5813 131.359 27.732V24.302H130.169V23.056H131.359L131.541 21.292H132.843V23.056H134.803V24.302H132.843V27.732C132.843 28.1147 132.923 28.3807 133.081 28.53C133.249 28.67 133.534 28.74 133.935 28.74H134.733V30H133.585ZM138.532 30.168C137.944 30.168 137.458 30.07 137.076 29.874C136.693 29.678 136.408 29.4213 136.222 29.104C136.035 28.7773 135.942 28.4227 135.942 28.04C135.942 27.368 136.203 26.836 136.726 26.444C137.248 26.052 137.995 25.856 138.966 25.856H140.786V25.73C140.786 25.1887 140.636 24.7827 140.338 24.512C140.048 24.2413 139.67 24.106 139.204 24.106C138.793 24.106 138.434 24.2087 138.126 24.414C137.827 24.61 137.645 24.904 137.58 25.296H136.096C136.142 24.792 136.31 24.3627 136.6 24.008C136.898 23.644 137.272 23.3687 137.72 23.182C138.177 22.986 138.676 22.888 139.218 22.888C140.188 22.888 140.94 23.1447 141.472 23.658C142.004 24.162 142.27 24.8527 142.27 25.73V30H140.982L140.856 28.81C140.66 29.1927 140.375 29.5147 140.002 29.776C139.628 30.0373 139.138 30.168 138.532 30.168ZM138.826 28.964C139.227 28.964 139.563 28.8707 139.834 28.684C140.114 28.488 140.328 28.2313 140.478 27.914C140.636 27.5967 140.734 27.2467 140.772 26.864H139.12C138.532 26.864 138.112 26.9667 137.86 27.172C137.617 27.3773 137.496 27.634 137.496 27.942C137.496 28.2593 137.612 28.5113 137.846 28.698C138.088 28.8753 138.415 28.964 138.826 28.964ZM143.846 30V19.92H145.33V30H143.846ZM153.718 30.168C153 30.168 152.37 30.042 151.828 29.79C151.287 29.538 150.862 29.1787 150.554 28.712C150.256 28.2453 150.102 27.69 150.092 27.046H151.66C151.67 27.5687 151.852 28.012 152.206 28.376C152.561 28.74 153.06 28.922 153.704 28.922C154.274 28.922 154.717 28.7867 155.034 28.516C155.361 28.236 155.524 27.8813 155.524 27.452C155.524 27.1067 155.445 26.8267 155.286 26.612C155.137 26.3973 154.927 26.22 154.656 26.08C154.395 25.94 154.092 25.814 153.746 25.702C153.401 25.59 153.037 25.4687 152.654 25.338C151.898 25.086 151.329 24.7593 150.946 24.358C150.573 23.9567 150.386 23.4293 150.386 22.776C150.377 22.2253 150.503 21.7447 150.764 21.334C151.035 20.9233 151.408 20.606 151.884 20.382C152.37 20.1487 152.934 20.032 153.578 20.032C154.213 20.032 154.768 20.1487 155.244 20.382C155.73 20.6153 156.108 20.942 156.378 21.362C156.649 21.7727 156.789 22.2533 156.798 22.804H155.23C155.23 22.552 155.165 22.314 155.034 22.09C154.904 21.8567 154.712 21.6653 154.46 21.516C154.208 21.3667 153.9 21.292 153.536 21.292C153.07 21.2827 152.682 21.3993 152.374 21.642C152.076 21.8847 151.926 22.2207 151.926 22.65C151.926 23.0327 152.038 23.3267 152.262 23.532C152.486 23.7373 152.794 23.91 153.186 24.05C153.578 24.1807 154.026 24.3347 154.53 24.512C155.016 24.6707 155.45 24.862 155.832 25.086C156.215 25.31 156.518 25.604 156.742 25.968C156.976 26.332 157.092 26.794 157.092 27.354C157.092 27.8487 156.966 28.3107 156.714 28.74C156.462 29.16 156.084 29.5053 155.58 29.776C155.076 30.0373 154.456 30.168 153.718 30.168ZM161.795 30.168C161.114 30.168 160.502 30.014 159.961 29.706C159.429 29.398 159.009 28.9733 158.701 28.432C158.402 27.8813 158.253 27.2467 158.253 26.528C158.253 25.8093 158.402 25.1793 158.701 24.638C159.009 24.0873 159.429 23.658 159.961 23.35C160.502 23.042 161.114 22.888 161.795 22.888C162.654 22.888 163.372 23.112 163.951 23.56C164.539 24.008 164.917 24.6147 165.085 25.38H163.531C163.438 24.9973 163.232 24.6987 162.915 24.484C162.598 24.2693 162.224 24.162 161.795 24.162C161.431 24.162 161.095 24.2553 160.787 24.442C160.479 24.6193 160.232 24.8853 160.045 25.24C159.858 25.5853 159.765 26.0147 159.765 26.528C159.765 27.0413 159.858 27.4753 160.045 27.83C160.232 28.1753 160.479 28.4413 160.787 28.628C161.095 28.8147 161.431 28.908 161.795 28.908C162.224 28.908 162.598 28.8007 162.915 28.586C163.232 28.3713 163.438 28.068 163.531 27.676H165.085C164.926 28.4227 164.553 29.0247 163.965 29.482C163.377 29.9393 162.654 30.168 161.795 30.168ZM166.54 30V19.92H168.024V24.176C168.258 23.7747 168.58 23.462 168.99 23.238C169.41 23.0047 169.872 22.888 170.376 22.888C171.207 22.888 171.86 23.1493 172.336 23.672C172.812 24.1947 173.05 24.974 173.05 26.01V30H171.58V26.164C171.58 24.82 171.044 24.148 169.97 24.148C169.41 24.148 168.944 24.344 168.57 24.736C168.206 25.128 168.024 25.688 168.024 26.416V30H166.54ZM177.892 30.168C177.23 30.168 176.632 30.0187 176.1 29.72C175.578 29.412 175.162 28.9873 174.854 28.446C174.546 27.8953 174.392 27.256 174.392 26.528C174.392 25.8 174.546 25.1653 174.854 24.624C175.172 24.0733 175.596 23.6487 176.128 23.35C176.66 23.042 177.253 22.888 177.906 22.888C178.569 22.888 179.162 23.042 179.684 23.35C180.216 23.6487 180.636 24.0733 180.944 24.624C181.262 25.1653 181.42 25.8 181.42 26.528C181.42 27.256 181.262 27.8953 180.944 28.446C180.636 28.9873 180.216 29.412 179.684 29.72C179.152 30.0187 178.555 30.168 177.892 30.168ZM177.892 28.894C178.247 28.894 178.574 28.8053 178.872 28.628C179.18 28.4507 179.428 28.1893 179.614 27.844C179.801 27.4893 179.894 27.0507 179.894 26.528C179.894 26.0053 179.801 25.5713 179.614 25.226C179.437 24.8713 179.194 24.6053 178.886 24.428C178.588 24.2507 178.261 24.162 177.906 24.162C177.552 24.162 177.22 24.2507 176.912 24.428C176.614 24.6053 176.371 24.8713 176.184 25.226C175.998 25.5713 175.904 26.0053 175.904 26.528C175.904 27.0507 175.998 27.4893 176.184 27.844C176.371 28.1893 176.614 28.4507 176.912 28.628C177.211 28.8053 177.538 28.894 177.892 28.894ZM186.119 30.168C185.456 30.168 184.859 30.0187 184.327 29.72C183.804 29.412 183.389 28.9873 183.081 28.446C182.773 27.8953 182.619 27.256 182.619 26.528C182.619 25.8 182.773 25.1653 183.081 24.624C183.398 24.0733 183.823 23.6487 184.355 23.35C184.887 23.042 185.48 22.888 186.133 22.888C186.796 22.888 187.388 23.042 187.911 23.35C188.443 23.6487 188.863 24.0733 189.171 24.624C189.488 25.1653 189.647 25.8 189.647 26.528C189.647 27.256 189.488 27.8953 189.171 28.446C188.863 28.9873 188.443 29.412 187.911 29.72C187.379 30.0187 186.782 30.168 186.119 30.168ZM186.119 28.894C186.474 28.894 186.8 28.8053 187.099 28.628C187.407 28.4507 187.654 28.1893 187.841 27.844C188.028 27.4893 188.121 27.0507 188.121 26.528C188.121 26.0053 188.028 25.5713 187.841 25.226C187.664 24.8713 187.421 24.6053 187.113 24.428C186.814 24.2507 186.488 24.162 186.133 24.162C185.778 24.162 185.447 24.2507 185.139 24.428C184.84 24.6053 184.598 24.8713 184.411 25.226C184.224 25.5713 184.131 26.0053 184.131 26.528C184.131 27.0507 184.224 27.4893 184.411 27.844C184.598 28.1893 184.84 28.4507 185.139 28.628C185.438 28.8053 185.764 28.894 186.119 28.894ZM191.098 30V19.92H192.582V30H191.098Z" fill="#F8FAFC"/>
</svg>
