<svg width="20" height="20" viewBox="0 0 20 20" fill="none" xmlns="http://www.w3.org/2000/svg">
<path d="M6.49984 1.66669H13.4998C16.1665 1.66669 18.3332 3.83335 18.3332 6.50002V13.5C18.3332 14.7819 17.8239 16.0113 16.9175 16.9177C16.0111 17.8241 14.7817 18.3334 13.4998 18.3334H6.49984C3.83317 18.3334 1.6665 16.1667 1.6665 13.5V6.50002C1.6665 5.21814 2.17573 3.98876 3.08215 3.08234C3.98858 2.17591 5.21796 1.66669 6.49984 1.66669ZM6.33317 3.33335C5.53752 3.33335 4.77446 3.64942 4.21185 4.21203C3.64924 4.77464 3.33317 5.5377 3.33317 6.33335V13.6667C3.33317 15.325 4.67484 16.6667 6.33317 16.6667H13.6665C14.4622 16.6667 15.2252 16.3506 15.7878 15.788C16.3504 15.2254 16.6665 14.4623 16.6665 13.6667V6.33335C16.6665 4.67502 15.3248 3.33335 13.6665 3.33335H6.33317ZM14.3748 4.58335C14.6511 4.58335 14.9161 4.6931 15.1114 4.88845C15.3068 5.0838 15.4165 5.34875 15.4165 5.62502C15.4165 5.90129 15.3068 6.16624 15.1114 6.36159C14.9161 6.55694 14.6511 6.66669 14.3748 6.66669C14.0986 6.66669 13.8336 6.55694 13.6383 6.36159C13.4429 6.16624 13.3332 5.90129 13.3332 5.62502C13.3332 5.34875 13.4429 5.0838 13.6383 4.88845C13.8336 4.6931 14.0986 4.58335 14.3748 4.58335ZM9.99984 5.83335C11.1049 5.83335 12.1647 6.27234 12.9461 7.05374C13.7275 7.83514 14.1665 8.89495 14.1665 10C14.1665 11.1051 13.7275 12.1649 12.9461 12.9463C12.1647 13.7277 11.1049 14.1667 9.99984 14.1667C8.89477 14.1667 7.83496 13.7277 7.05356 12.9463C6.27216 12.1649 5.83317 11.1051 5.83317 10C5.83317 8.89495 6.27216 7.83514 7.05356 7.05374C7.83496 6.27234 8.89477 5.83335 9.99984 5.83335ZM9.99984 7.50002C9.3368 7.50002 8.70091 7.76341 8.23207 8.23225C7.76323 8.70109 7.49984 9.33698 7.49984 10C7.49984 10.6631 7.76323 11.2989 8.23207 11.7678C8.70091 12.2366 9.3368 12.5 9.99984 12.5C10.6629 12.5 11.2988 12.2366 11.7676 11.7678C12.2364 11.2989 12.4998 10.6631 12.4998 10C12.4998 9.33698 12.2364 8.70109 11.7676 8.23225C11.2988 7.76341 10.6629 7.50002 9.99984 7.50002Z" fill="white"/>
</svg>
