<svg width="20" height="20" viewBox="0 0 20 20" fill="none" xmlns="http://www.w3.org/2000/svg">
<path d="M8.33317 12.5L12.6582 10L8.33317 7.50002V12.5ZM17.9665 5.97502C18.0748 6.36669 18.1498 6.89169 18.1998 7.55835C18.2582 8.22502 18.2832 8.80002 18.2832 9.30002L18.3332 10C18.3332 11.825 18.1998 13.1667 17.9665 14.025C17.7582 14.775 17.2748 15.2584 16.5248 15.4667C16.1332 15.575 15.4165 15.65 14.3165 15.7C13.2332 15.7584 12.2415 15.7834 11.3248 15.7834L9.99984 15.8334C6.50817 15.8334 4.33317 15.7 3.47484 15.4667C2.72484 15.2584 2.2415 14.775 2.03317 14.025C1.92484 13.6334 1.84984 13.1084 1.79984 12.4417C1.7415 11.775 1.7165 11.2 1.7165 10.7L1.6665 10C1.6665 8.17502 1.79984 6.83335 2.03317 5.97502C2.2415 5.22502 2.72484 4.74169 3.47484 4.53335C3.8665 4.42502 4.58317 4.35002 5.68317 4.30002C6.7665 4.24169 7.75817 4.21669 8.67484 4.21669L9.99984 4.16669C13.4915 4.16669 15.6665 4.30002 16.5248 4.53335C17.2748 4.74169 17.7582 5.22502 17.9665 5.97502Z" fill="white"/>
</svg>
