<svg width="20" height="20" viewBox="0 0 20 20" fill="none" xmlns="http://www.w3.org/2000/svg">
<path d="M9.99984 1.70001C5.4165 1.70001 1.6665 5.44168 1.6665 10.05C1.6665 14.2167 4.7165 17.675 8.69984 18.3V12.4667H6.58317V10.05H8.69984V8.20835C8.69984 6.11668 9.94151 4.96668 11.8498 4.96668C12.7582 4.96668 13.7082 5.12501 13.7082 5.12501V7.18335H12.6582C11.6248 7.18335 11.2998 7.82501 11.2998 8.48335V10.05H13.6165L13.2415 12.4667H11.2998V18.3C13.2635 17.9899 15.0517 16.9879 16.3414 15.4751C17.6312 13.9622 18.3376 12.038 18.3332 10.05C18.3332 5.44168 14.5832 1.70001 9.99984 1.70001Z" fill="white"/>
</svg>
