<svg width="65" height="65" viewBox="0 0 65 65" fill="none" xmlns="http://www.w3.org/2000/svg">
<path d="M24.3752 13.5417C27.2483 13.5417 30.0038 14.6831 32.0355 16.7148C34.0671 18.7464 35.2085 21.5019 35.2085 24.3751C35.2085 27.2483 34.0671 30.0038 32.0355 32.0354C30.0038 34.067 27.2483 35.2084 24.3752 35.2084C21.502 35.2084 18.7465 34.067 16.7148 32.0354C14.6832 30.0038 13.5418 27.2483 13.5418 24.3751C13.5418 21.5019 14.6832 18.7464 16.7148 16.7148C18.7465 14.6831 21.502 13.5417 24.3752 13.5417ZM24.3752 40.6251C31.6064 40.6251 46.0418 44.2542 46.0418 51.4584V56.8751H2.7085V51.4584C2.7085 44.2542 17.1439 40.6251 24.3752 40.6251ZM45.3918 14.5167C50.8627 20.4751 50.8627 28.7355 45.3918 34.2063L40.8418 29.6292C43.1168 26.4334 43.1168 22.2897 40.8418 19.0938L45.3918 14.5167ZM54.3564 5.41675C65.0002 16.3855 64.9189 32.798 54.3564 43.3334L49.9418 38.9188C57.4439 30.3063 57.4439 18.0105 49.9418 9.83133L54.3564 5.41675Z" fill="#007AFF"/>
</svg>
