<svg width="50" height="50" viewBox="0 0 50 50" fill="none" xmlns="http://www.w3.org/2000/svg">
<rect width="50" height="50" rx="8" fill="#8B5CF6" fill-opacity="0.15"/>
<path d="M27.5 12.5H22.5C18.4 12.5 16.3512 12.5 14.8987 13.5175C14.3613 13.8938 13.8938 14.3613 13.5175 14.8987C12.5 16.35 12.5 18.4 12.5 22.5C12.5 26.6 12.5 28.6487 13.5175 30.1012C13.8938 30.6387 14.3613 31.1062 14.8987 31.4825C16.35 32.5 18.4 32.5 22.5 32.5H27.5C31.6 32.5 33.6487 32.5 35.1012 31.4825C35.6387 31.1062 36.1062 30.6387 36.4825 30.1012C37.5 28.65 37.5 26.6 37.5 22.5" stroke="#8B5CF6" stroke-width="1.875" stroke-linecap="round" stroke-linejoin="round"/>
<path d="M28.32 37.4998L27.795 36.976C27.2193 36.4006 26.8395 35.6585 26.7094 34.855C26.5792 34.0515 26.7054 33.2275 27.07 32.4998M21.25 37.4998L21.775 36.976C22.3507 36.4006 22.7305 35.6585 22.8606 34.855C22.9908 34.0515 22.8646 33.2275 22.5 32.4998M18.75 37.4998H31.25M20 22.4998H28.75M33.5375 13.4423C33.91 13.0385 34.0962 12.8373 34.2937 12.7198C34.5273 12.5797 34.7937 12.5036 35.066 12.4992C35.3384 12.4948 35.607 12.5623 35.845 12.6948C36.0463 12.8073 36.2388 13.0035 36.6225 13.396C37.0063 13.7885 37.1975 13.9835 37.3075 14.1898C37.5725 14.686 37.5637 15.2873 37.285 15.7748C37.17 15.9773 36.9725 16.1673 36.5775 16.5485L31.875 21.0773C31.1263 21.7985 30.7525 22.1585 30.2837 22.341C29.8162 22.5248 29.3013 22.511 28.2725 22.4835L28.1325 22.481C27.82 22.4723 27.6625 22.4685 27.5713 22.3648C27.4813 22.261 27.4937 22.1023 27.5175 21.7823L27.5312 21.6098C27.6012 20.711 27.6362 20.2623 27.8112 19.8598C27.9862 19.4548 28.29 19.1273 28.895 18.4723L33.5375 13.4423Z" stroke="#8B5CF6" stroke-width="1.875" stroke-linecap="round" stroke-linejoin="round"/>
</svg>
