<svg width="65" height="65" viewBox="0 0 65 65" fill="none" xmlns="http://www.w3.org/2000/svg">
<g clip-path="url(#clip0_776_437)">
<path fill-rule="evenodd" clip-rule="evenodd" d="M57.5809 41.6743H33.7027C36.412 41.433 38.9243 40.1571 40.7174 38.1117C42.5105 36.0663 43.4467 33.4087 43.3313 30.691C43.216 27.9734 42.058 25.4047 40.098 23.5186C38.138 21.6325 35.5267 20.5741 32.8066 20.5632H25.0066C26.1727 18.9952 27.0068 17.2058 27.4578 15.3044C27.9088 13.4031 27.9673 11.4297 27.6296 9.505C27.2919 7.58029 26.5652 5.74466 25.494 4.11037C24.4227 2.47607 23.0293 1.07744 21.3991 0L57.5809 0C59.2416 0.00246034 60.8335 0.663908 62.0069 1.83909C63.1804 3.01428 63.8395 4.60713 63.8395 6.26786V35.4204C63.8395 38.8746 61.0352 41.6789 57.5809 41.6789V41.6743ZM13.4552 20.5725C14.5984 20.5991 15.7354 20.3969 16.7994 19.9778C17.8634 19.5587 18.8328 18.9311 19.6508 18.132C20.4687 17.3328 21.1187 16.3782 21.5624 15.3243C22.0062 14.2704 22.2348 13.1384 22.2348 11.9948C22.2348 10.8513 22.0062 9.71928 21.5624 8.66535C21.1187 7.61142 20.4687 6.65683 19.6508 5.85769C18.8328 5.05855 17.8634 4.43097 16.7994 4.01186C15.7354 3.59274 14.5984 3.39054 13.4552 3.41714C11.2148 3.46927 9.08371 4.39587 7.51762 5.99882C5.95154 7.60177 5.07475 9.75383 5.07475 11.9948C5.07475 14.2358 5.95154 16.3879 7.51762 17.9908C9.08371 19.5938 11.2148 20.5204 13.4552 20.5725ZM37.5748 31.1396C37.5748 28.5025 35.4391 26.3668 32.8066 26.3668H13.4598C11.8439 26.3662 10.2437 26.684 8.75073 27.3021C7.25771 27.9202 5.90114 28.8264 4.75852 29.9691C3.61591 31.1117 2.70966 32.4683 2.09156 33.9613C1.47347 35.4543 1.15564 37.0545 1.15625 38.6704V44.265C1.15625 46.735 3.16197 48.7361 5.63197 48.7361H6.43054L7.73982 60.8539C7.86227 61.9917 8.40058 63.0442 9.25146 63.8094C10.1023 64.5746 11.2058 64.9986 12.3502 65H14.6809C15.8009 64.9995 16.883 64.5942 17.7277 63.8587C18.5724 63.1232 19.1228 62.1072 19.2773 60.9979L22.7734 35.9079H32.802C35.4345 35.9079 37.5702 33.7721 37.5702 31.1396H37.5748Z" fill="#007AFF"/>
</g>
<defs>
<clipPath id="clip0_776_437">
<rect width="65" height="65" fill="white"/>
</clipPath>
</defs>
</svg>
