<svg width="80" height="62" viewBox="0 0 80 62" fill="none" xmlns="http://www.w3.org/2000/svg">
<g clip-path="url(#clip0_776_627)">
<path fill-rule="evenodd" clip-rule="evenodd" d="M14.2709 3.14051e-06C15.6055 -0.00128441 16.9104 0.39336 18.0206 1.13399C19.1307 1.87462 19.9962 2.92795 20.5075 4.16067C21.0189 5.39338 21.153 6.75007 20.8929 8.05904C20.6329 9.36801 19.9904 10.5704 19.0467 11.5141C18.103 12.4577 16.9006 13.1003 15.5917 13.3603C14.2827 13.6203 12.926 13.4862 11.6933 12.9749C10.4606 12.4636 9.40726 11.5981 8.66662 10.4879C7.92599 9.37777 7.53135 8.07283 7.53263 6.73829C7.53263 4.95118 8.24256 3.23727 9.50623 1.9736C10.7699 0.709927 12.4838 3.14051e-06 14.2709 3.14051e-06ZM9.5118 14.7787L11.9076 21.0612H12.1615L13.3269 17.0378L12.6759 16.3542C12.2071 15.6706 12.3699 14.8893 13.2423 14.7461C13.5565 14.723 13.872 14.723 14.1863 14.7461C14.5318 14.7262 14.8784 14.7393 15.2214 14.7852C16.0287 14.9675 16.1134 15.7487 15.7097 16.3737L15.0587 17.0573L16.2761 21.0612H16.5235L18.685 14.7787C18.7815 14.8656 18.8838 14.9461 18.991 15.0195C19.6119 15.0758 20.2135 15.2645 20.7553 15.5729C21.5527 15.7321 22.2548 16.2001 22.7084 16.875L27.8516 23.9779L31.517 24.681V10.8529H26.3087C25.9875 10.8529 25.6795 10.7253 25.4524 10.4982C25.2253 10.2711 25.0977 9.96309 25.0977 9.64193C25.0977 9.32077 25.2253 9.01276 25.4524 8.78567C25.6795 8.55857 25.9875 8.43099 26.3087 8.43099H50.4949V4.89584C50.5173 4.58917 50.655 4.30237 50.8802 4.09304C51.1055 3.88371 51.4016 3.76736 51.7091 3.76736C52.0166 3.76736 52.3126 3.88371 52.5379 4.09304C52.7631 4.30237 52.9008 4.58917 52.9233 4.89584V8.46355H78.6589C78.9801 8.46355 79.2881 8.59113 79.5152 8.81822C79.7423 9.04532 79.8699 9.35332 79.8699 9.67448C79.8699 9.99564 79.7423 10.3037 79.5152 10.5307C79.2881 10.7578 78.9801 10.8854 78.6589 10.8854H73.4962V40.8399H78.7761C79.0973 40.8399 79.4053 40.9674 79.6324 41.1945C79.8595 41.4216 79.9871 41.7296 79.9871 42.0508C79.9871 42.3719 79.8595 42.68 79.6324 42.9071C79.4053 43.1341 79.0973 43.2617 78.7761 43.2617H53.0925V48.8281C53.1461 48.8751 53.2026 48.9186 53.2618 48.9583L60.8269 56.1198C60.9534 56.2252 61.057 56.3554 61.1312 56.5024C61.2054 56.6494 61.2487 56.81 61.2583 56.9744C61.268 57.1388 61.2439 57.3034 61.1874 57.4581C61.131 57.6127 61.0434 57.7542 60.9302 57.8737C60.8169 57.9932 60.6803 58.0882 60.5289 58.1529C60.3775 58.2175 60.2144 58.2505 60.0497 58.2496C59.8851 58.2487 59.7224 58.2141 59.5716 58.1479C59.4208 58.0817 59.2853 57.9853 59.1733 57.8646L53.0925 52.0833V57.2917C53.0701 57.5983 52.9324 57.8851 52.7071 58.0945C52.4819 58.3038 52.1858 58.4202 51.8783 58.4202C51.5708 58.4202 51.2747 58.3038 51.0495 58.0945C50.8243 57.8851 50.6866 57.5983 50.6641 57.2917V51.875L44.3555 57.8711C44.2411 57.9812 44.1059 58.0674 43.9579 58.1247C43.8098 58.1821 43.6519 58.2095 43.4931 58.2052C43.3344 58.201 43.1781 58.1652 43.0334 58.1C42.8886 58.0349 42.7582 57.9415 42.6498 57.8255C42.5391 57.7121 42.4523 57.5776 42.3946 57.43C42.3368 57.2824 42.3092 57.1247 42.3134 56.9663C42.3177 56.8079 42.3537 56.6519 42.4193 56.5076C42.4849 56.3633 42.5788 56.2337 42.6954 56.1263L50.2605 48.9649C50.3751 48.8521 50.5128 48.7654 50.6641 48.7109V43.2617H26.2826C25.9615 43.2617 25.6535 43.1341 25.4264 42.9071C25.1993 42.68 25.0717 42.3719 25.0717 42.0508C25.0717 41.7296 25.1993 41.4216 25.4264 41.1945C25.6535 40.9674 25.9615 40.8399 26.2826 40.8399H31.491V31.1393L25.4558 29.9479C24.6488 29.811 23.9259 29.3679 23.4376 28.7109L20.879 25.1628V25.2539L20.6707 35.5274L23.2748 51.9596L24.2579 57.5912C24.8113 61.3542 19.0496 63.5873 17.6238 58.6458L14.2644 38.8412L10.8464 58.9649C10.1954 62.6042 4.25138 62.6367 4.21232 58.2162L7.98185 35.6576L7.69539 23.4766C7.37428 23.87 7.1132 24.3088 6.92065 24.7787C6.51917 25.7231 6.29834 26.7345 6.26961 27.7604L5.74878 34.8633C5.46232 38.5742 -0.0650219 38.8021 8.23033e-05 34.7982C0.0326344 33.0013 0.195395 31.1914 0.390707 29.349C0.768311 25.8203 0.846436 23.6328 2.85816 20.1172C3.61134 18.8114 4.60549 17.6604 5.78784 16.7253C6.71995 15.9895 7.80588 15.4733 8.96493 15.2148C9.15774 15.0832 9.34053 14.9374 9.5118 14.7787ZM33.9389 24.9089L40.7488 17.7474C40.892 17.5861 41.0662 17.4553 41.261 17.3628C41.4559 17.2702 41.6673 17.2178 41.8828 17.2086C42.0983 17.1995 42.3135 17.2338 42.5154 17.3094C42.7174 17.3851 42.9021 17.5007 43.0585 17.6492C43.2149 17.7978 43.3398 17.9762 43.4258 18.1741C43.5118 18.3719 43.5572 18.5849 43.5591 18.8006C43.5611 19.0163 43.5196 19.2302 43.4372 19.4295C43.3548 19.6289 43.2332 19.8096 43.0795 19.9609L36.6733 26.6927C36.9724 27.1769 37.1362 27.7323 37.1478 28.3013C37.1594 28.8703 37.0182 29.4319 36.739 29.9278C36.4598 30.4237 36.0528 30.8357 35.5603 31.1209C35.0679 31.4061 34.508 31.5541 33.9389 31.5495V40.8399H71.0938V10.8529H33.9389V24.9089Z" fill="#007AFF"/>
</g>
<defs>
<clipPath id="clip0_776_627">
<rect width="80" height="61.6211" fill="white"/>
</clipPath>
</defs>
</svg>
